<svg xmlns="http://www.w3.org/2000/svg" xmlns:xlink="http://www.w3.org/1999/xlink" width="900" zoomAndPan="magnify" viewBox="0 0 675 299.999988" height="400" preserveAspectRatio="xMidYMid meet" version="1.0"><defs><g/><clipPath id="6a0fa27ad3"><path d="M 0 69.207031 L 121.859375 69.207031 L 121.859375 191.066406 L 0 191.066406 Z M 0 69.207031 " clip-rule="nonzero"/></clipPath><clipPath id="1e255fd45c"><path d="M 23.429688 95.117188 L 144.894531 95.117188 L 144.894531 211.308594 L 23.429688 211.308594 Z M 23.429688 95.117188 " clip-rule="nonzero"/></clipPath></defs><g clip-path="url(#6a0fa27ad3)"><path fill="#ffbd59" d="M 118.265625 127.578125 L 63.460938 72.769531 C 61.234375 70.578125 58.1875 69.207031 54.835938 69.207031 L 12.1875 69.207031 C 5.453125 69.207031 0 74.660156 0 81.394531 L 0 124.042969 C 0 127.425781 1.371094 130.472656 3.59375 132.664062 L 58.433594 187.503906 C 60.625 189.695312 63.671875 191.066406 67.023438 191.066406 C 70.375 191.066406 73.453125 189.695312 75.644531 187.503906 L 118.296875 144.851562 C 120.488281 142.628906 121.859375 139.582031 121.859375 136.230469 C 121.859375 132.847656 120.488281 129.800781 118.265625 127.578125 Z M 21.324219 99.671875 C 16.269531 99.671875 12.1875 95.589844 12.1875 90.53125 C 12.1875 85.476562 16.269531 81.394531 21.324219 81.394531 C 26.382812 81.394531 30.464844 85.476562 30.464844 90.53125 C 30.464844 95.589844 26.382812 99.671875 21.324219 99.671875 Z M 21.324219 99.671875 " fill-opacity="1" fill-rule="nonzero"/></g><g clip-path="url(#1e255fd45c)"><path fill="#004aad" d="M 26.726562 95.148438 C 26.914062 95.152344 27.109375 95.167969 27.292969 95.199219 C 27.296875 95.199219 27.296875 95.199219 27.300781 95.199219 L 45.902344 98.371094 C 47.082031 98.574219 48.074219 99.386719 48.511719 100.503906 C 48.511719 100.503906 48.511719 100.507812 48.511719 100.511719 L 57.144531 122.617188 L 141.371094 124.714844 C 142.339844 124.738281 143.25 125.175781 143.878906 125.90625 C 144.507812 126.632812 144.8125 127.601562 144.695312 128.566406 L 140.042969 166.984375 C 139.851562 168.597656 138.519531 169.875 136.898438 170 L 76.851562 174.769531 L 64.949219 184.121094 C 64.9375 184.132812 64.921875 184.144531 64.910156 184.152344 C 64.894531 184.164062 64.878906 184.167969 64.867188 184.175781 C 64.851562 184.183594 64.839844 184.195312 64.824219 184.207031 C 62.652344 185.824219 62.113281 188.03125 62.421875 189.257812 C 62.597656 189.957031 62.863281 190.46875 63.5 190.863281 C 64.132812 191.261719 65.226562 191.546875 67.101562 191.4375 C 67.109375 191.4375 67.117188 191.4375 67.125 191.4375 C 67.183594 191.4375 67.253906 191.4375 67.3125 191.4375 C 67.324219 191.4375 67.332031 191.4375 67.34375 191.4375 L 138.960938 191.648438 L 138.96875 191.648438 C 140.851562 191.636719 142.4375 193.210938 142.429688 195.09375 C 142.421875 196.972656 140.832031 198.542969 138.949219 198.515625 L 138.9375 198.515625 L 133.703125 198.503906 C 135.648438 199.742188 136.953125 201.910156 136.953125 204.371094 C 136.953125 208.199219 133.816406 211.332031 129.984375 211.332031 C 126.152344 211.332031 123.015625 208.199219 123.015625 204.371094 C 123.015625 201.898438 124.324219 199.707031 126.285156 198.472656 L 67.3125 198.304688 C 69.4375 199.503906 70.886719 201.773438 70.886719 204.371094 C 70.886719 208.199219 67.746094 211.332031 63.917969 211.332031 C 60.085938 211.332031 56.945312 208.199219 56.945312 204.371094 C 56.945312 201.046875 59.308594 198.246094 62.441406 197.566406 C 59.480469 196.519531 57.207031 194.359375 55.796875 191.0625 C 55.777344 191.023438 55.757812 190.980469 55.746094 190.9375 C 54.664062 186.625 56.582031 181.933594 60.53125 178.882812 C 60.539062 178.871094 60.550781 178.863281 60.5625 178.851562 C 60.570312 178.84375 60.574219 178.828125 60.582031 178.820312 C 60.617188 178.777344 60.65625 178.742188 60.699219 178.707031 L 69.128906 172.097656 L 42.832031 104.8125 L 26.144531 101.972656 C 26.140625 101.972656 26.136719 101.972656 26.132812 101.972656 C 24.378906 101.691406 23.097656 100.058594 23.25 98.289062 C 23.402344 96.515625 24.949219 95.125 26.730469 95.148438 Z M 59.683594 127.921875 L 64.53125 140.339844 L 70.851562 140.339844 L 70.851562 128.203125 Z M 73.265625 128.265625 L 73.265625 140.339844 L 84.9375 140.339844 L 84.9375 128.558594 Z M 87.351562 128.609375 L 87.351562 140.339844 L 99.019531 140.339844 L 99.019531 128.902344 Z M 101.433594 128.964844 L 101.433594 140.339844 L 113.105469 140.339844 L 113.105469 129.257812 Z M 115.519531 129.320312 L 115.519531 140.339844 L 127.191406 140.339844 L 127.191406 129.609375 Z M 129.605469 129.664062 L 129.605469 140.339844 L 138.164062 140.339844 L 139.425781 129.914062 Z M 137.871094 142.742188 L 129.605469 142.742188 L 129.605469 153.648438 L 136.554688 153.648438 Z M 127.191406 142.742188 L 115.519531 142.742188 L 115.519531 153.648438 L 127.191406 153.648438 Z M 113.105469 142.742188 L 101.433594 142.742188 L 101.433594 153.648438 L 113.105469 153.648438 Z M 99.019531 142.742188 L 87.351562 142.742188 L 87.351562 153.648438 L 99.019531 153.648438 Z M 84.9375 142.742188 L 73.265625 142.742188 L 73.265625 153.648438 L 84.9375 153.648438 Z M 70.851562 142.742188 L 65.460938 142.742188 L 69.722656 153.648438 L 70.851562 153.648438 Z M 136.257812 156.046875 L 129.601562 156.046875 L 129.601562 163.875 L 135.371094 163.417969 Z M 127.1875 156.046875 L 115.519531 156.046875 L 115.519531 164.992188 L 127.1875 164.0625 Z M 113.105469 156.046875 L 101.433594 156.046875 L 101.433594 166.109375 L 113.105469 165.191406 Z M 99.019531 156.046875 L 87.347656 156.046875 L 87.347656 167.234375 L 99.019531 166.308594 Z M 84.933594 156.046875 L 73.265625 156.046875 L 73.265625 162.6875 L 75.480469 168.351562 C 75.765625 168.214844 76.082031 168.128906 76.398438 168.101562 L 84.933594 167.425781 Z M 70.851562 156.046875 L 70.671875 156.046875 L 70.851562 156.539062 Z M 129.976562 200.28125 C 127.699219 200.28125 125.882812 202.097656 125.882812 204.371094 C 125.882812 206.648438 127.699219 208.453125 129.976562 208.453125 C 132.253906 208.453125 134.074219 206.648438 134.074219 204.371094 C 134.074219 202.097656 132.253906 200.28125 129.976562 200.28125 Z M 63.914062 200.28125 C 61.636719 200.28125 59.816406 202.097656 59.816406 204.371094 C 59.816406 206.648438 61.636719 208.453125 63.914062 208.453125 C 66.191406 208.453125 68.007812 206.648438 68.007812 204.371094 C 68.007812 202.097656 66.191406 200.28125 63.914062 200.28125 Z M 129.976562 202.222656 C 131.214844 202.222656 132.203125 203.210938 132.203125 204.445312 C 132.203125 205.679688 131.214844 206.65625 129.976562 206.65625 C 128.742188 206.65625 127.753906 205.679688 127.753906 204.445312 C 127.753906 203.210938 128.742188 202.222656 129.976562 202.222656 Z M 63.914062 202.222656 C 65.148438 202.222656 66.136719 203.210938 66.136719 204.445312 C 66.136719 205.679688 65.148438 206.65625 63.914062 206.65625 C 62.675781 206.65625 61.6875 205.679688 61.6875 204.445312 C 61.6875 203.210938 62.675781 202.222656 63.914062 202.222656 Z M 63.914062 202.222656 " fill-opacity="1" fill-rule="nonzero"/></g><g fill="#000000" fill-opacity="0.302"><g transform="translate(181.894055, 150.021324)"><g><path d="M 28.234375 -65.171875 C 31.703125 -65.171875 35.085938 -64.664062 38.390625 -63.65625 C 41.703125 -62.644531 44.160156 -61.648438 45.765625 -60.671875 L 48.09375 -59.109375 L 42.203125 -47.484375 C 41.734375 -47.785156 41.082031 -48.179688 40.25 -48.671875 C 39.425781 -49.171875 37.875 -49.832031 35.59375 -50.65625 C 33.320312 -51.488281 31.207031 -51.90625 29.25 -51.90625 C 26.8125 -51.90625 24.929688 -51.382812 23.609375 -50.34375 C 22.296875 -49.3125 21.640625 -47.914062 21.640625 -46.15625 C 21.640625 -45.28125 21.945312 -44.46875 22.5625 -43.71875 C 23.1875 -42.96875 24.25 -42.164062 25.75 -41.3125 C 27.25 -40.457031 28.566406 -39.769531 29.703125 -39.25 C 30.847656 -38.738281 32.609375 -37.960938 34.984375 -36.921875 C 39.117188 -35.171875 42.644531 -32.78125 45.5625 -29.75 C 48.488281 -26.726562 49.953125 -23.300781 49.953125 -19.46875 C 49.953125 -15.800781 49.289062 -12.59375 47.96875 -9.84375 C 46.65625 -7.101562 44.847656 -4.957031 42.546875 -3.40625 C 40.242188 -1.863281 37.695312 -0.71875 34.90625 0.03125 C 32.113281 0.78125 29.085938 1.15625 25.828125 1.15625 C 23.035156 1.15625 20.296875 0.867188 17.609375 0.296875 C 14.921875 -0.265625 12.671875 -0.972656 10.859375 -1.828125 C 9.046875 -2.679688 7.414062 -3.519531 5.96875 -4.34375 C 4.519531 -5.164062 3.460938 -5.863281 2.796875 -6.4375 L 1.78125 -7.296875 L 9.078125 -19.546875 C 9.691406 -19.035156 10.539062 -18.378906 11.625 -17.578125 C 12.71875 -16.773438 14.644531 -15.695312 17.40625 -14.34375 C 20.175781 -13 22.625 -12.328125 24.75 -12.328125 C 30.90625 -12.328125 33.984375 -14.425781 33.984375 -18.625 C 33.984375 -19.5 33.757812 -20.3125 33.3125 -21.0625 C 32.875 -21.8125 32.097656 -22.5625 30.984375 -23.3125 C 29.878906 -24.0625 28.898438 -24.65625 28.046875 -25.09375 C 27.191406 -25.53125 25.796875 -26.203125 23.859375 -27.109375 C 21.921875 -28.015625 20.484375 -28.703125 19.546875 -29.171875 C 15.671875 -31.085938 12.671875 -33.476562 10.546875 -36.34375 C 8.429688 -39.21875 7.375 -42.304688 7.375 -45.609375 C 7.375 -51.359375 9.492188 -56.054688 13.734375 -59.703125 C 17.972656 -63.347656 22.804688 -65.171875 28.234375 -65.171875 Z M 28.234375 -65.171875 "/></g></g></g><g fill="#000000" fill-opacity="0.302"><g transform="translate(234.018707, 150.021324)"><g><path d="M 57.5625 0 L 54.53125 -37.9375 L 54.15625 -37.9375 L 41.03125 -0.390625 L 32.34375 -0.390625 L 19.234375 -37.9375 L 18.84375 -37.9375 L 15.828125 0 L 1.234375 0 L 6.984375 -64 L 22.5 -64 L 36.6875 -27.078125 L 50.890625 -64 L 66.40625 -64 L 72.140625 0 Z M 57.5625 0 "/></g></g></g><g fill="#000000" fill-opacity="0.302"><g transform="translate(307.396559, 150.021324)"><g><path d="M 37.15625 -64 L 63 0 L 47.328125 0 L 42.59375 -12.796875 L 18.234375 -12.796875 L 13.5 0 L -2.171875 0 L 23.65625 -64 Z M 37.625 -25.59375 L 30.484375 -44.21875 L 30.328125 -44.21875 L 23.203125 -25.59375 Z M 37.625 -25.59375 "/></g></g></g><g fill="#000000" fill-opacity="0.302"><g transform="translate(368.208649, 150.021324)"><g><path d="M 19.234375 -64 L 19.234375 -12.796875 L 41.265625 -12.796875 L 41.265625 0 L 4.65625 0 L 4.65625 -64 Z M 19.234375 -64 "/></g></g></g><g fill="#000000" fill-opacity="0.302"><g transform="translate(412.033692, 150.021324)"><g><path d="M 19.234375 -64 L 19.234375 -12.796875 L 41.265625 -12.796875 L 41.265625 0 L 4.65625 0 L 4.65625 -64 Z M 19.234375 -64 "/></g></g></g><g fill="#000000" fill-opacity="0.302"><g transform="translate(455.858723, 150.021324)"><g/></g></g><g fill="#000000" fill-opacity="0.502"><g transform="translate(176.878315, 143.117734)"><g><path d="M 28.234375 -65.171875 C 31.703125 -65.171875 35.085938 -64.664062 38.390625 -63.65625 C 41.703125 -62.644531 44.160156 -61.648438 45.765625 -60.671875 L 48.09375 -59.109375 L 42.203125 -47.484375 C 41.734375 -47.785156 41.082031 -48.179688 40.25 -48.671875 C 39.425781 -49.171875 37.875 -49.832031 35.59375 -50.65625 C 33.320312 -51.488281 31.207031 -51.90625 29.25 -51.90625 C 26.8125 -51.90625 24.929688 -51.382812 23.609375 -50.34375 C 22.296875 -49.3125 21.640625 -47.914062 21.640625 -46.15625 C 21.640625 -45.28125 21.945312 -44.46875 22.5625 -43.71875 C 23.1875 -42.96875 24.25 -42.164062 25.75 -41.3125 C 27.25 -40.457031 28.566406 -39.769531 29.703125 -39.25 C 30.847656 -38.738281 32.609375 -37.960938 34.984375 -36.921875 C 39.117188 -35.171875 42.644531 -32.78125 45.5625 -29.75 C 48.488281 -26.726562 49.953125 -23.300781 49.953125 -19.46875 C 49.953125 -15.800781 49.289062 -12.59375 47.96875 -9.84375 C 46.65625 -7.101562 44.847656 -4.957031 42.546875 -3.40625 C 40.242188 -1.863281 37.695312 -0.71875 34.90625 0.03125 C 32.113281 0.78125 29.085938 1.15625 25.828125 1.15625 C 23.035156 1.15625 20.296875 0.867188 17.609375 0.296875 C 14.921875 -0.265625 12.671875 -0.972656 10.859375 -1.828125 C 9.046875 -2.679688 7.414062 -3.519531 5.96875 -4.34375 C 4.519531 -5.164062 3.460938 -5.863281 2.796875 -6.4375 L 1.78125 -7.296875 L 9.078125 -19.546875 C 9.691406 -19.035156 10.539062 -18.378906 11.625 -17.578125 C 12.71875 -16.773438 14.644531 -15.695312 17.40625 -14.34375 C 20.175781 -13 22.625 -12.328125 24.75 -12.328125 C 30.90625 -12.328125 33.984375 -14.425781 33.984375 -18.625 C 33.984375 -19.5 33.757812 -20.3125 33.3125 -21.0625 C 32.875 -21.8125 32.097656 -22.5625 30.984375 -23.3125 C 29.878906 -24.0625 28.898438 -24.65625 28.046875 -25.09375 C 27.191406 -25.53125 25.796875 -26.203125 23.859375 -27.109375 C 21.921875 -28.015625 20.484375 -28.703125 19.546875 -29.171875 C 15.671875 -31.085938 12.671875 -33.476562 10.546875 -36.34375 C 8.429688 -39.21875 7.375 -42.304688 7.375 -45.609375 C 7.375 -51.359375 9.492188 -56.054688 13.734375 -59.703125 C 17.972656 -63.347656 22.804688 -65.171875 28.234375 -65.171875 Z M 28.234375 -65.171875 "/></g></g></g><g fill="#000000" fill-opacity="0.502"><g transform="translate(229.002967, 143.117734)"><g><path d="M 57.5625 0 L 54.53125 -37.9375 L 54.15625 -37.9375 L 41.03125 -0.390625 L 32.34375 -0.390625 L 19.234375 -37.9375 L 18.84375 -37.9375 L 15.828125 0 L 1.234375 0 L 6.984375 -64 L 22.5 -64 L 36.6875 -27.078125 L 50.890625 -64 L 66.40625 -64 L 72.140625 0 Z M 57.5625 0 "/></g></g></g><g fill="#000000" fill-opacity="0.502"><g transform="translate(302.380818, 143.117734)"><g><path d="M 37.15625 -64 L 63 0 L 47.328125 0 L 42.59375 -12.796875 L 18.234375 -12.796875 L 13.5 0 L -2.171875 0 L 23.65625 -64 Z M 37.625 -25.59375 L 30.484375 -44.21875 L 30.328125 -44.21875 L 23.203125 -25.59375 Z M 37.625 -25.59375 "/></g></g></g><g fill="#000000" fill-opacity="0.502"><g transform="translate(363.192909, 143.117734)"><g><path d="M 19.234375 -64 L 19.234375 -12.796875 L 41.265625 -12.796875 L 41.265625 0 L 4.65625 0 L 4.65625 -64 Z M 19.234375 -64 "/></g></g></g><g fill="#000000" fill-opacity="0.502"><g transform="translate(407.017952, 143.117734)"><g><path d="M 19.234375 -64 L 19.234375 -12.796875 L 41.265625 -12.796875 L 41.265625 0 L 4.65625 0 L 4.65625 -64 Z M 19.234375 -64 "/></g></g></g><g fill="#000000" fill-opacity="0.502"><g transform="translate(450.842983, 143.117734)"><g/></g></g><g fill="#ffbd59" fill-opacity="1"><g transform="translate(171.862558, 136.214146)"><g><path d="M 28.234375 -65.171875 C 31.703125 -65.171875 35.085938 -64.664062 38.390625 -63.65625 C 41.703125 -62.644531 44.160156 -61.648438 45.765625 -60.671875 L 48.09375 -59.109375 L 42.203125 -47.484375 C 41.734375 -47.785156 41.082031 -48.179688 40.25 -48.671875 C 39.425781 -49.171875 37.875 -49.832031 35.59375 -50.65625 C 33.320312 -51.488281 31.207031 -51.90625 29.25 -51.90625 C 26.8125 -51.90625 24.929688 -51.382812 23.609375 -50.34375 C 22.296875 -49.3125 21.640625 -47.914062 21.640625 -46.15625 C 21.640625 -45.28125 21.945312 -44.46875 22.5625 -43.71875 C 23.1875 -42.96875 24.25 -42.164062 25.75 -41.3125 C 27.25 -40.457031 28.566406 -39.769531 29.703125 -39.25 C 30.847656 -38.738281 32.609375 -37.960938 34.984375 -36.921875 C 39.117188 -35.171875 42.644531 -32.78125 45.5625 -29.75 C 48.488281 -26.726562 49.953125 -23.300781 49.953125 -19.46875 C 49.953125 -15.800781 49.289062 -12.59375 47.96875 -9.84375 C 46.65625 -7.101562 44.847656 -4.957031 42.546875 -3.40625 C 40.242188 -1.863281 37.695312 -0.71875 34.90625 0.03125 C 32.113281 0.78125 29.085938 1.15625 25.828125 1.15625 C 23.035156 1.15625 20.296875 0.867188 17.609375 0.296875 C 14.921875 -0.265625 12.671875 -0.972656 10.859375 -1.828125 C 9.046875 -2.679688 7.414062 -3.519531 5.96875 -4.34375 C 4.519531 -5.164062 3.460938 -5.863281 2.796875 -6.4375 L 1.78125 -7.296875 L 9.078125 -19.546875 C 9.691406 -19.035156 10.539062 -18.378906 11.625 -17.578125 C 12.71875 -16.773438 14.644531 -15.695312 17.40625 -14.34375 C 20.175781 -13 22.625 -12.328125 24.75 -12.328125 C 30.90625 -12.328125 33.984375 -14.425781 33.984375 -18.625 C 33.984375 -19.5 33.757812 -20.3125 33.3125 -21.0625 C 32.875 -21.8125 32.097656 -22.5625 30.984375 -23.3125 C 29.878906 -24.0625 28.898438 -24.65625 28.046875 -25.09375 C 27.191406 -25.53125 25.796875 -26.203125 23.859375 -27.109375 C 21.921875 -28.015625 20.484375 -28.703125 19.546875 -29.171875 C 15.671875 -31.085938 12.671875 -33.476562 10.546875 -36.34375 C 8.429688 -39.21875 7.375 -42.304688 7.375 -45.609375 C 7.375 -51.359375 9.492188 -56.054688 13.734375 -59.703125 C 17.972656 -63.347656 22.804688 -65.171875 28.234375 -65.171875 Z M 28.234375 -65.171875 "/></g></g></g><g fill="#ffbd59" fill-opacity="1"><g transform="translate(223.98721, 136.214146)"><g><path d="M 57.5625 0 L 54.53125 -37.9375 L 54.15625 -37.9375 L 41.03125 -0.390625 L 32.34375 -0.390625 L 19.234375 -37.9375 L 18.84375 -37.9375 L 15.828125 0 L 1.234375 0 L 6.984375 -64 L 22.5 -64 L 36.6875 -27.078125 L 50.890625 -64 L 66.40625 -64 L 72.140625 0 Z M 57.5625 0 "/></g></g></g><g fill="#ffbd59" fill-opacity="1"><g transform="translate(297.365061, 136.214146)"><g><path d="M 37.15625 -64 L 63 0 L 47.328125 0 L 42.59375 -12.796875 L 18.234375 -12.796875 L 13.5 0 L -2.171875 0 L 23.65625 -64 Z M 37.625 -25.59375 L 30.484375 -44.21875 L 30.328125 -44.21875 L 23.203125 -25.59375 Z M 37.625 -25.59375 "/></g></g></g><g fill="#ffbd59" fill-opacity="1"><g transform="translate(358.177152, 136.214146)"><g><path d="M 19.234375 -64 L 19.234375 -12.796875 L 41.265625 -12.796875 L 41.265625 0 L 4.65625 0 L 4.65625 -64 Z M 19.234375 -64 "/></g></g></g><g fill="#ffbd59" fill-opacity="1"><g transform="translate(402.002194, 136.214146)"><g><path d="M 19.234375 -64 L 19.234375 -12.796875 L 41.265625 -12.796875 L 41.265625 0 L 4.65625 0 L 4.65625 -64 Z M 19.234375 -64 "/></g></g></g><g fill="#ffbd59" fill-opacity="1"><g transform="translate(445.827226, 136.214146)"><g/></g></g><g fill="#000000" fill-opacity="0.302"><g transform="translate(477.030754, 150.021324)"><g><path d="M 28.234375 -65.171875 C 31.703125 -65.171875 35.085938 -64.664062 38.390625 -63.65625 C 41.703125 -62.644531 44.160156 -61.648438 45.765625 -60.671875 L 48.09375 -59.109375 L 42.203125 -47.484375 C 41.734375 -47.785156 41.082031 -48.179688 40.25 -48.671875 C 39.425781 -49.171875 37.875 -49.832031 35.59375 -50.65625 C 33.320312 -51.488281 31.207031 -51.90625 29.25 -51.90625 C 26.8125 -51.90625 24.929688 -51.382812 23.609375 -50.34375 C 22.296875 -49.3125 21.640625 -47.914062 21.640625 -46.15625 C 21.640625 -45.28125 21.945312 -44.46875 22.5625 -43.71875 C 23.1875 -42.96875 24.25 -42.164062 25.75 -41.3125 C 27.25 -40.457031 28.566406 -39.769531 29.703125 -39.25 C 30.847656 -38.738281 32.609375 -37.960938 34.984375 -36.921875 C 39.117188 -35.171875 42.644531 -32.78125 45.5625 -29.75 C 48.488281 -26.726562 49.953125 -23.300781 49.953125 -19.46875 C 49.953125 -15.800781 49.289062 -12.59375 47.96875 -9.84375 C 46.65625 -7.101562 44.847656 -4.957031 42.546875 -3.40625 C 40.242188 -1.863281 37.695312 -0.71875 34.90625 0.03125 C 32.113281 0.78125 29.085938 1.15625 25.828125 1.15625 C 23.035156 1.15625 20.296875 0.867188 17.609375 0.296875 C 14.921875 -0.265625 12.671875 -0.972656 10.859375 -1.828125 C 9.046875 -2.679688 7.414062 -3.519531 5.96875 -4.34375 C 4.519531 -5.164062 3.460938 -5.863281 2.796875 -6.4375 L 1.78125 -7.296875 L 9.078125 -19.546875 C 9.691406 -19.035156 10.539062 -18.378906 11.625 -17.578125 C 12.71875 -16.773438 14.644531 -15.695312 17.40625 -14.34375 C 20.175781 -13 22.625 -12.328125 24.75 -12.328125 C 30.90625 -12.328125 33.984375 -14.425781 33.984375 -18.625 C 33.984375 -19.5 33.757812 -20.3125 33.3125 -21.0625 C 32.875 -21.8125 32.097656 -22.5625 30.984375 -23.3125 C 29.878906 -24.0625 28.898438 -24.65625 28.046875 -25.09375 C 27.191406 -25.53125 25.796875 -26.203125 23.859375 -27.109375 C 21.921875 -28.015625 20.484375 -28.703125 19.546875 -29.171875 C 15.671875 -31.085938 12.671875 -33.476562 10.546875 -36.34375 C 8.429688 -39.21875 7.375 -42.304688 7.375 -45.609375 C 7.375 -51.359375 9.492188 -56.054688 13.734375 -59.703125 C 17.972656 -63.347656 22.804688 -65.171875 28.234375 -65.171875 Z M 28.234375 -65.171875 "/></g></g></g><g fill="#000000" fill-opacity="0.302"><g transform="translate(529.155406, 150.021324)"><g><path d="M 37.15625 -64 L 63 0 L 47.328125 0 L 42.59375 -12.796875 L 18.234375 -12.796875 L 13.5 0 L -2.171875 0 L 23.65625 -64 Z M 37.625 -25.59375 L 30.484375 -44.21875 L 30.328125 -44.21875 L 23.203125 -25.59375 Z M 37.625 -25.59375 "/></g></g></g><g fill="#000000" fill-opacity="0.302"><g transform="translate(589.967496, 150.021324)"><g><path d="M 19.234375 -64 L 19.234375 -12.796875 L 41.265625 -12.796875 L 41.265625 0 L 4.65625 0 L 4.65625 -64 Z M 19.234375 -64 "/></g></g></g><g fill="#000000" fill-opacity="0.302"><g transform="translate(633.792539, 150.021324)"><g><path d="M 41.265625 -64 L 41.265625 -51.203125 L 19.234375 -51.203125 L 19.234375 -38.484375 L 40.34375 -38.484375 L 40.34375 -25.671875 L 19.234375 -25.671875 L 19.234375 -12.796875 L 41.265625 -12.796875 L 41.265625 0 L 4.65625 0 L 4.65625 -64 Z M 41.265625 -64 "/></g></g></g><g fill="#000000" fill-opacity="0.502"><g transform="translate(472.015013, 143.117734)"><g><path d="M 28.234375 -65.171875 C 31.703125 -65.171875 35.085938 -64.664062 38.390625 -63.65625 C 41.703125 -62.644531 44.160156 -61.648438 45.765625 -60.671875 L 48.09375 -59.109375 L 42.203125 -47.484375 C 41.734375 -47.785156 41.082031 -48.179688 40.25 -48.671875 C 39.425781 -49.171875 37.875 -49.832031 35.59375 -50.65625 C 33.320312 -51.488281 31.207031 -51.90625 29.25 -51.90625 C 26.8125 -51.90625 24.929688 -51.382812 23.609375 -50.34375 C 22.296875 -49.3125 21.640625 -47.914062 21.640625 -46.15625 C 21.640625 -45.28125 21.945312 -44.46875 22.5625 -43.71875 C 23.1875 -42.96875 24.25 -42.164062 25.75 -41.3125 C 27.25 -40.457031 28.566406 -39.769531 29.703125 -39.25 C 30.847656 -38.738281 32.609375 -37.960938 34.984375 -36.921875 C 39.117188 -35.171875 42.644531 -32.78125 45.5625 -29.75 C 48.488281 -26.726562 49.953125 -23.300781 49.953125 -19.46875 C 49.953125 -15.800781 49.289062 -12.59375 47.96875 -9.84375 C 46.65625 -7.101562 44.847656 -4.957031 42.546875 -3.40625 C 40.242188 -1.863281 37.695312 -0.71875 34.90625 0.03125 C 32.113281 0.78125 29.085938 1.15625 25.828125 1.15625 C 23.035156 1.15625 20.296875 0.867188 17.609375 0.296875 C 14.921875 -0.265625 12.671875 -0.972656 10.859375 -1.828125 C 9.046875 -2.679688 7.414062 -3.519531 5.96875 -4.34375 C 4.519531 -5.164062 3.460938 -5.863281 2.796875 -6.4375 L 1.78125 -7.296875 L 9.078125 -19.546875 C 9.691406 -19.035156 10.539062 -18.378906 11.625 -17.578125 C 12.71875 -16.773438 14.644531 -15.695312 17.40625 -14.34375 C 20.175781 -13 22.625 -12.328125 24.75 -12.328125 C 30.90625 -12.328125 33.984375 -14.425781 33.984375 -18.625 C 33.984375 -19.5 33.757812 -20.3125 33.3125 -21.0625 C 32.875 -21.8125 32.097656 -22.5625 30.984375 -23.3125 C 29.878906 -24.0625 28.898438 -24.65625 28.046875 -25.09375 C 27.191406 -25.53125 25.796875 -26.203125 23.859375 -27.109375 C 21.921875 -28.015625 20.484375 -28.703125 19.546875 -29.171875 C 15.671875 -31.085938 12.671875 -33.476562 10.546875 -36.34375 C 8.429688 -39.21875 7.375 -42.304688 7.375 -45.609375 C 7.375 -51.359375 9.492188 -56.054688 13.734375 -59.703125 C 17.972656 -63.347656 22.804688 -65.171875 28.234375 -65.171875 Z M 28.234375 -65.171875 "/></g></g></g><g fill="#000000" fill-opacity="0.502"><g transform="translate(524.139665, 143.117734)"><g><path d="M 37.15625 -64 L 63 0 L 47.328125 0 L 42.59375 -12.796875 L 18.234375 -12.796875 L 13.5 0 L -2.171875 0 L 23.65625 -64 Z M 37.625 -25.59375 L 30.484375 -44.21875 L 30.328125 -44.21875 L 23.203125 -25.59375 Z M 37.625 -25.59375 "/></g></g></g><g fill="#000000" fill-opacity="0.502"><g transform="translate(584.951756, 143.117734)"><g><path d="M 19.234375 -64 L 19.234375 -12.796875 L 41.265625 -12.796875 L 41.265625 0 L 4.65625 0 L 4.65625 -64 Z M 19.234375 -64 "/></g></g></g><g fill="#000000" fill-opacity="0.502"><g transform="translate(628.776799, 143.117734)"><g><path d="M 41.265625 -64 L 41.265625 -51.203125 L 19.234375 -51.203125 L 19.234375 -38.484375 L 40.34375 -38.484375 L 40.34375 -25.671875 L 19.234375 -25.671875 L 19.234375 -12.796875 L 41.265625 -12.796875 L 41.265625 0 L 4.65625 0 L 4.65625 -64 Z M 41.265625 -64 "/></g></g></g><g fill="#000000" fill-opacity="1"><g transform="translate(466.999256, 136.214146)"><g><path d="M 28.234375 -65.171875 C 31.703125 -65.171875 35.085938 -64.664062 38.390625 -63.65625 C 41.703125 -62.644531 44.160156 -61.648438 45.765625 -60.671875 L 48.09375 -59.109375 L 42.203125 -47.484375 C 41.734375 -47.785156 41.082031 -48.179688 40.25 -48.671875 C 39.425781 -49.171875 37.875 -49.832031 35.59375 -50.65625 C 33.320312 -51.488281 31.207031 -51.90625 29.25 -51.90625 C 26.8125 -51.90625 24.929688 -51.382812 23.609375 -50.34375 C 22.296875 -49.3125 21.640625 -47.914062 21.640625 -46.15625 C 21.640625 -45.28125 21.945312 -44.46875 22.5625 -43.71875 C 23.1875 -42.96875 24.25 -42.164062 25.75 -41.3125 C 27.25 -40.457031 28.566406 -39.769531 29.703125 -39.25 C 30.847656 -38.738281 32.609375 -37.960938 34.984375 -36.921875 C 39.117188 -35.171875 42.644531 -32.78125 45.5625 -29.75 C 48.488281 -26.726562 49.953125 -23.300781 49.953125 -19.46875 C 49.953125 -15.800781 49.289062 -12.59375 47.96875 -9.84375 C 46.65625 -7.101562 44.847656 -4.957031 42.546875 -3.40625 C 40.242188 -1.863281 37.695312 -0.71875 34.90625 0.03125 C 32.113281 0.78125 29.085938 1.15625 25.828125 1.15625 C 23.035156 1.15625 20.296875 0.867188 17.609375 0.296875 C 14.921875 -0.265625 12.671875 -0.972656 10.859375 -1.828125 C 9.046875 -2.679688 7.414062 -3.519531 5.96875 -4.34375 C 4.519531 -5.164062 3.460938 -5.863281 2.796875 -6.4375 L 1.78125 -7.296875 L 9.078125 -19.546875 C 9.691406 -19.035156 10.539062 -18.378906 11.625 -17.578125 C 12.71875 -16.773438 14.644531 -15.695312 17.40625 -14.34375 C 20.175781 -13 22.625 -12.328125 24.75 -12.328125 C 30.90625 -12.328125 33.984375 -14.425781 33.984375 -18.625 C 33.984375 -19.5 33.757812 -20.3125 33.3125 -21.0625 C 32.875 -21.8125 32.097656 -22.5625 30.984375 -23.3125 C 29.878906 -24.0625 28.898438 -24.65625 28.046875 -25.09375 C 27.191406 -25.53125 25.796875 -26.203125 23.859375 -27.109375 C 21.921875 -28.015625 20.484375 -28.703125 19.546875 -29.171875 C 15.671875 -31.085938 12.671875 -33.476562 10.546875 -36.34375 C 8.429688 -39.21875 7.375 -42.304688 7.375 -45.609375 C 7.375 -51.359375 9.492188 -56.054688 13.734375 -59.703125 C 17.972656 -63.347656 22.804688 -65.171875 28.234375 -65.171875 Z M 28.234375 -65.171875 "/></g></g></g><g fill="#000000" fill-opacity="1"><g transform="translate(519.123908, 136.214146)"><g><path d="M 37.15625 -64 L 63 0 L 47.328125 0 L 42.59375 -12.796875 L 18.234375 -12.796875 L 13.5 0 L -2.171875 0 L 23.65625 -64 Z M 37.625 -25.59375 L 30.484375 -44.21875 L 30.328125 -44.21875 L 23.203125 -25.59375 Z M 37.625 -25.59375 "/></g></g></g><g fill="#000000" fill-opacity="1"><g transform="translate(579.935999, 136.214146)"><g><path d="M 19.234375 -64 L 19.234375 -12.796875 L 41.265625 -12.796875 L 41.265625 0 L 4.65625 0 L 4.65625 -64 Z M 19.234375 -64 "/></g></g></g><g fill="#000000" fill-opacity="1"><g transform="translate(623.761042, 136.214146)"><g><path d="M 41.265625 -64 L 41.265625 -51.203125 L 19.234375 -51.203125 L 19.234375 -38.484375 L 40.34375 -38.484375 L 40.34375 -25.671875 L 19.234375 -25.671875 L 19.234375 -12.796875 L 41.265625 -12.796875 L 41.265625 0 L 4.65625 0 L 4.65625 -64 Z M 41.265625 -64 "/></g></g></g><g fill="#ff00ff" fill-opacity="1"><g transform="translate(271.598049, 201.779691)"><g><path d="M 17.90625 0 L 16.328125 0 C 15.816406 0 15.425781 -0.117188 15.15625 -0.359375 C 14.882812 -0.597656 14.644531 -1.015625 14.4375 -1.609375 L 5.046875 -25.921875 L 2.453125 -25.921875 C 2.109375 -25.921875 1.9375 -26.082031 1.9375 -26.40625 L 1.9375 -28.453125 C 1.9375 -28.773438 2.109375 -28.9375 2.453125 -28.9375 L 11.53125 -28.9375 C 11.851562 -28.9375 12.015625 -28.773438 12.015625 -28.453125 L 12.015625 -26.40625 C 12.015625 -26.082031 11.851562 -25.921875 11.53125 -25.921875 L 8.78125 -25.921875 L 16.96875 -4.265625 L 17.21875 -4.265625 L 25.390625 -25.921875 L 22.65625 -25.921875 C 22.300781 -25.921875 22.125 -26.082031 22.125 -26.40625 L 22.125 -28.453125 C 22.125 -28.773438 22.300781 -28.9375 22.65625 -28.9375 L 31.71875 -28.9375 C 32.070312 -28.9375 32.25 -28.773438 32.25 -28.453125 L 32.25 -26.40625 C 32.25 -26.082031 32.070312 -25.921875 31.71875 -25.921875 L 29.0625 -25.921875 L 19.75 -1.609375 C 19.5625 -1.046875 19.335938 -0.632812 19.078125 -0.375 C 18.828125 -0.125 18.4375 0 17.90625 0 Z M 17.90625 0 "/></g></g></g><g fill="#ff00ff" fill-opacity="1"><g transform="translate(305.773068, 201.779691)"><g><path d="M 9.75 0 L 2.0625 0 C 1.707031 0 1.53125 -0.160156 1.53125 -0.484375 L 1.53125 -2.21875 C 1.53125 -2.539062 1.707031 -2.703125 2.0625 -2.703125 L 4.265625 -2.703125 L 4.265625 -17.140625 L 2.0625 -17.140625 C 1.707031 -17.140625 1.53125 -17.296875 1.53125 -17.609375 L 1.53125 -19.34375 C 1.53125 -19.664062 1.707031 -19.828125 2.0625 -19.828125 L 7.140625 -19.828125 C 7.460938 -19.828125 7.625 -19.664062 7.625 -19.34375 L 7.625 -2.703125 L 9.75 -2.703125 C 10.101562 -2.703125 10.28125 -2.539062 10.28125 -2.21875 L 10.28125 -0.484375 C 10.28125 -0.160156 10.101562 0 9.75 0 Z M 7.46875 -25.796875 C 7.914062 -25.335938 8.140625 -24.800781 8.140625 -24.1875 C 8.140625 -23.570312 7.914062 -23.046875 7.46875 -22.609375 C 7.03125 -22.179688 6.5 -21.96875 5.875 -21.96875 C 5.257812 -21.96875 4.726562 -22.179688 4.28125 -22.609375 C 3.84375 -23.046875 3.625 -23.570312 3.625 -24.1875 C 3.625 -24.800781 3.84375 -25.335938 4.28125 -25.796875 C 4.726562 -26.253906 5.257812 -26.484375 5.875 -26.484375 C 6.5 -26.484375 7.03125 -26.253906 7.46875 -25.796875 Z M 7.46875 -25.796875 "/></g></g></g><g fill="#ff00ff" fill-opacity="1"><g transform="translate(317.581184, 201.779691)"><g><path d="M 9.75 0 L 2.0625 0 C 1.707031 0 1.53125 -0.160156 1.53125 -0.484375 L 1.53125 -2.21875 C 1.53125 -2.539062 1.707031 -2.703125 2.0625 -2.703125 L 4.265625 -2.703125 L 4.265625 -17.140625 L 2.0625 -17.140625 C 1.707031 -17.140625 1.53125 -17.296875 1.53125 -17.609375 L 1.53125 -19.34375 C 1.53125 -19.664062 1.707031 -19.828125 2.0625 -19.828125 L 6.765625 -19.828125 C 7.117188 -19.828125 7.296875 -19.664062 7.296875 -19.34375 L 7.296875 -14.3125 L 7.421875 -14.3125 C 7.492188 -14.738281 7.769531 -15.328125 8.25 -16.078125 C 8.738281 -16.835938 9.269531 -17.460938 9.84375 -17.953125 C 10.425781 -18.453125 11.257812 -18.90625 12.34375 -19.3125 C 13.4375 -19.71875 14.671875 -19.921875 16.046875 -19.921875 C 16.390625 -19.921875 16.5625 -19.742188 16.5625 -19.390625 L 16.5625 -17.25 C 16.5625 -16.90625 16.390625 -16.734375 16.046875 -16.734375 L 15.203125 -16.734375 C 12.890625 -16.734375 11.046875 -15.992188 9.671875 -14.515625 C 8.304688 -13.035156 7.625 -11.351562 7.625 -9.46875 L 7.625 -2.703125 L 9.75 -2.703125 C 10.101562 -2.703125 10.28125 -2.539062 10.28125 -2.21875 L 10.28125 -0.484375 C 10.28125 -0.160156 10.101562 0 9.75 0 Z M 9.75 0 "/></g></g></g><g fill="#ff00ff" fill-opacity="1"><g transform="translate(334.547793, 201.779691)"><g><path d="M 15 -2.0625 C 15.101562 -1.945312 15.15625 -1.828125 15.15625 -1.703125 C 15.15625 -1.585938 15.078125 -1.453125 14.921875 -1.296875 C 13.734375 -0.242188 12.242188 0.28125 10.453125 0.28125 C 8.671875 0.28125 7.207031 -0.300781 6.0625 -1.46875 C 4.925781 -2.632812 4.359375 -4.335938 4.359375 -6.578125 L 4.359375 -17.140625 L 2.09375 -17.140625 C 1.71875 -17.140625 1.53125 -17.3125 1.53125 -17.65625 L 1.53125 -19.3125 C 1.53125 -19.65625 1.71875 -19.828125 2.09375 -19.828125 L 4.359375 -19.828125 L 4.359375 -23.90625 C 4.359375 -24.28125 4.546875 -24.46875 4.921875 -24.46875 L 7.171875 -24.46875 C 7.523438 -24.46875 7.703125 -24.28125 7.703125 -23.90625 L 7.703125 -19.828125 L 12.8125 -19.828125 C 13.195312 -19.828125 13.390625 -19.65625 13.390625 -19.3125 L 13.390625 -17.65625 C 13.390625 -17.3125 13.195312 -17.140625 12.8125 -17.140625 L 7.703125 -17.140625 L 7.703125 -6.65625 C 7.703125 -5.3125 8.003906 -4.296875 8.609375 -3.609375 C 9.210938 -2.921875 10.015625 -2.578125 11.015625 -2.578125 C 12.023438 -2.578125 12.785156 -2.832031 13.296875 -3.34375 C 13.566406 -3.582031 13.8125 -3.570312 14.03125 -3.3125 Z M 15 -2.0625 "/></g></g></g><g fill="#ff00ff" fill-opacity="1"><g transform="translate(350.708383, 201.779691)"><g><path d="M 22.453125 0 L 18.953125 0 C 17.796875 0 17.21875 -0.5625 17.21875 -1.6875 L 17.21875 -3.1875 L 17.09375 -3.1875 C 15.988281 -0.875 13.890625 0.28125 10.796875 0.28125 C 8.648438 0.28125 6.953125 -0.351562 5.703125 -1.625 C 4.453125 -2.90625 3.816406 -4.609375 3.796875 -6.734375 L 3.796875 -17.140625 L 1.484375 -17.140625 C 1.171875 -17.140625 1.015625 -17.296875 1.015625 -17.609375 L 1.015625 -19.34375 C 1.015625 -19.664062 1.171875 -19.828125 1.484375 -19.828125 L 5.359375 -19.828125 C 6.515625 -19.828125 7.09375 -19.265625 7.09375 -18.140625 L 7.09375 -7.53125 C 7.09375 -5.976562 7.46875 -4.769531 8.21875 -3.90625 C 8.976562 -3.050781 10.082031 -2.625 11.53125 -2.625 C 13.488281 -2.625 15.035156 -3.347656 16.171875 -4.796875 C 16.648438 -5.410156 16.890625 -5.828125 16.890625 -6.046875 L 16.890625 -17.140625 L 14.71875 -17.140625 C 14.394531 -17.140625 14.234375 -17.296875 14.234375 -17.609375 L 14.234375 -19.34375 C 14.234375 -19.664062 14.394531 -19.828125 14.71875 -19.828125 L 19.71875 -19.828125 C 20.039062 -19.828125 20.203125 -19.664062 20.203125 -19.34375 L 20.203125 -2.703125 L 22.453125 -2.703125 C 22.804688 -2.703125 22.984375 -2.539062 22.984375 -2.21875 L 22.984375 -0.484375 C 22.984375 -0.160156 22.804688 0 22.453125 0 Z M 22.453125 0 "/></g></g></g><g fill="#ff00ff" fill-opacity="1"><g transform="translate(375.211223, 201.779691)"><g><path d="M 21.328125 0 L 17.8125 0 C 16.65625 0 16.078125 -0.5625 16.078125 -1.6875 L 16.078125 -3.75 L 16 -3.75 C 14.039062 -1.03125 11.421875 0.328125 8.140625 0.328125 C 6.203125 0.328125 4.613281 -0.175781 3.375 -1.1875 C 2.144531 -2.195312 1.53125 -3.5625 1.53125 -5.28125 C 1.53125 -7.488281 2.488281 -9.109375 4.40625 -10.140625 C 6.332031 -11.171875 8.972656 -11.6875 12.328125 -11.6875 L 15.71875 -11.6875 L 15.71875 -12.171875 C 15.71875 -15.535156 13.972656 -17.21875 10.484375 -17.21875 C 8.835938 -17.21875 7.648438 -17.0625 6.921875 -16.75 C 6.203125 -16.4375 5.6875 -16.1875 5.375 -16 C 5.070312 -15.8125 4.835938 -15.664062 4.671875 -15.5625 C 4.273438 -15.238281 3.984375 -15.210938 3.796875 -15.484375 L 2.65625 -16.890625 C 2.46875 -17.109375 2.492188 -17.320312 2.734375 -17.53125 C 3.191406 -18.125 4.132812 -18.703125 5.5625 -19.265625 C 6.988281 -19.828125 8.671875 -20.109375 10.609375 -20.109375 C 16.242188 -20.109375 19.0625 -17.421875 19.0625 -12.046875 L 19.0625 -2.703125 L 21.328125 -2.703125 C 21.648438 -2.703125 21.8125 -2.539062 21.8125 -2.21875 L 21.8125 -0.484375 C 21.8125 -0.160156 21.648438 0 21.328125 0 Z M 15.71875 -9.265625 L 12.53125 -9.265625 C 10.976562 -9.265625 9.691406 -9.179688 8.671875 -9.015625 C 7.648438 -8.859375 6.78125 -8.507812 6.0625 -7.96875 C 5.351562 -7.4375 5 -6.703125 5 -5.765625 C 5 -4.828125 5.378906 -4.054688 6.140625 -3.453125 C 6.910156 -2.847656 7.914062 -2.546875 9.15625 -2.546875 C 11.757812 -2.546875 13.945312 -3.695312 15.71875 -6 Z M 15.71875 -9.265625 "/></g></g></g><g fill="#ff00ff" fill-opacity="1"><g transform="translate(398.585641, 201.779691)"><g><path d="M 9.75 0 L 2.0625 0 C 1.707031 0 1.53125 -0.160156 1.53125 -0.484375 L 1.53125 -2.21875 C 1.53125 -2.539062 1.707031 -2.703125 2.0625 -2.703125 L 4.265625 -2.703125 L 4.265625 -26.25 L 2.0625 -26.25 C 1.707031 -26.25 1.53125 -26.410156 1.53125 -26.734375 L 1.53125 -28.453125 C 1.53125 -28.773438 1.707031 -28.9375 2.0625 -28.9375 L 6.53125 -28.9375 C 7.257812 -28.9375 7.625 -28.601562 7.625 -27.9375 L 7.625 -2.703125 L 9.75 -2.703125 C 10.101562 -2.703125 10.28125 -2.539062 10.28125 -2.21875 L 10.28125 -0.484375 C 10.28125 -0.160156 10.101562 0 9.75 0 Z M 9.75 0 "/></g></g></g><g fill="#ff00ff" fill-opacity="1"><g transform="translate(410.393757, 201.779691)"><g/></g></g><g fill="#ff00ff" fill-opacity="1"><g transform="translate(423.00788, 201.779691)"><g><path d="M 4.71875 0 L 2.453125 0 C 2.109375 0 1.9375 -0.160156 1.9375 -0.484375 L 1.9375 -9.921875 C 1.9375 -10.265625 2.109375 -10.4375 2.453125 -10.4375 L 5 -10.4375 C 5.320312 -10.4375 5.484375 -10.265625 5.484375 -9.921875 L 5.484375 -9.078125 C 5.484375 -8.554688 5.789062 -7.875 6.40625 -7.03125 C 7.03125 -6.1875 7.648438 -5.492188 8.265625 -4.953125 C 8.878906 -4.421875 9.703125 -3.957031 10.734375 -3.5625 C 11.773438 -3.175781 12.898438 -2.984375 14.109375 -2.984375 C 16.179688 -2.984375 17.800781 -3.410156 18.96875 -4.265625 C 20.132812 -5.128906 20.71875 -6.328125 20.71875 -7.859375 C 20.71875 -8.742188 20.390625 -9.503906 19.734375 -10.140625 C 19.078125 -10.773438 18.222656 -11.28125 17.171875 -11.65625 C 16.117188 -12.03125 14.953125 -12.378906 13.671875 -12.703125 C 12.398438 -13.023438 11.125 -13.394531 9.84375 -13.8125 C 8.570312 -14.226562 7.410156 -14.722656 6.359375 -15.296875 C 5.316406 -15.878906 4.46875 -16.6875 3.8125 -17.71875 C 3.15625 -18.75 2.828125 -19.960938 2.828125 -21.359375 C 2.828125 -23.617188 3.675781 -25.488281 5.375 -26.96875 C 7.082031 -28.445312 9.375 -29.1875 12.25 -29.1875 C 15.882812 -29.1875 18.546875 -28.125 20.234375 -26 L 20.15625 -28.5 C 20.15625 -28.820312 20.332031 -28.984375 20.6875 -28.984375 L 22.9375 -28.984375 C 23.257812 -28.984375 23.421875 -28.820312 23.421875 -28.5 L 23.421875 -19.71875 C 23.421875 -19.394531 23.257812 -19.234375 22.9375 -19.234375 L 20.390625 -19.234375 C 20.078125 -19.234375 19.921875 -19.394531 19.921875 -19.71875 L 19.921875 -20.84375 C 19.921875 -21.945312 19.300781 -23.0625 18.0625 -24.1875 C 16.820312 -25.3125 15.007812 -25.875 12.625 -25.875 C 10.84375 -25.875 9.40625 -25.453125 8.3125 -24.609375 C 7.226562 -23.765625 6.6875 -22.679688 6.6875 -21.359375 C 6.6875 -20.421875 7.019531 -19.613281 7.6875 -18.9375 C 8.363281 -18.269531 9.238281 -17.734375 10.3125 -17.328125 C 11.394531 -16.929688 12.578125 -16.5625 13.859375 -16.21875 C 15.148438 -15.882812 16.441406 -15.515625 17.734375 -15.109375 C 19.023438 -14.710938 20.207031 -14.226562 21.28125 -13.65625 C 22.351562 -13.09375 23.222656 -12.320312 23.890625 -11.34375 C 24.566406 -10.363281 24.90625 -9.203125 24.90625 -7.859375 C 24.90625 -5.492188 24.054688 -3.546875 22.359375 -2.015625 C 20.671875 -0.484375 18.148438 0.28125 14.796875 0.28125 C 12.328125 0.28125 10.285156 -0.210938 8.671875 -1.203125 C 7.054688 -2.203125 5.882812 -3.28125 5.15625 -4.4375 L 5.203125 -0.484375 C 5.203125 -0.160156 5.039062 0 4.71875 0 Z M 4.71875 0 "/></g></g></g><g fill="#ff00ff" fill-opacity="1"><g transform="translate(449.848164, 201.779691)"><g><path d="M 22.984375 0 L 19.15625 0 C 18 0 17.421875 -0.5625 17.421875 -1.6875 L 17.421875 -12.296875 C 17.421875 -13.859375 17.039062 -15.066406 16.28125 -15.921875 C 15.53125 -16.785156 14.429688 -17.21875 12.984375 -17.21875 C 11.878906 -17.21875 11.035156 -17.046875 10.453125 -16.703125 C 9.878906 -16.367188 9.441406 -16.070312 9.140625 -15.8125 C 8.847656 -15.5625 8.609375 -15.316406 8.421875 -15.078125 C 8.097656 -14.648438 7.832031 -14.207031 7.625 -13.75 L 7.625 -2.703125 L 9.75 -2.703125 C 10.101562 -2.703125 10.28125 -2.539062 10.28125 -2.21875 L 10.28125 -0.484375 C 10.28125 -0.160156 10.101562 0 9.75 0 L 2.0625 0 C 1.707031 0 1.53125 -0.160156 1.53125 -0.484375 L 1.53125 -2.21875 C 1.53125 -2.539062 1.707031 -2.703125 2.0625 -2.703125 L 4.265625 -2.703125 L 4.265625 -26.25 L 2.0625 -26.25 C 1.707031 -26.25 1.53125 -26.410156 1.53125 -26.734375 L 1.53125 -28.453125 C 1.53125 -28.773438 1.707031 -28.9375 2.0625 -28.9375 L 7.140625 -28.9375 C 7.460938 -28.9375 7.625 -28.773438 7.625 -28.453125 L 7.625 -19.46875 C 7.625 -18.582031 7.566406 -17.765625 7.453125 -17.015625 L 7.53125 -17.015625 C 8.851562 -19.078125 10.953125 -20.109375 13.828125 -20.109375 C 15.972656 -20.109375 17.648438 -19.476562 18.859375 -18.21875 C 20.078125 -16.957031 20.695312 -15.253906 20.71875 -13.109375 L 20.71875 -2.703125 L 22.984375 -2.703125 C 23.328125 -2.703125 23.5 -2.539062 23.5 -2.21875 L 23.5 -0.484375 C 23.5 -0.160156 23.328125 0 22.984375 0 Z M 22.984375 0 "/></g></g></g><g fill="#ff00ff" fill-opacity="1"><g transform="translate(474.874903, 201.779691)"><g><path d="M 18.78125 -2.53125 C 16.90625 -0.65625 14.5 0.28125 11.5625 0.28125 C 8.632812 0.28125 6.226562 -0.648438 4.34375 -2.515625 C 2.46875 -4.390625 1.53125 -6.878906 1.53125 -9.984375 C 1.53125 -13.085938 2.484375 -15.550781 4.390625 -17.375 C 6.296875 -19.195312 8.691406 -20.109375 11.578125 -20.109375 C 14.472656 -20.109375 16.867188 -19.1875 18.765625 -17.34375 C 20.660156 -15.507812 21.609375 -13.050781 21.609375 -9.96875 C 21.609375 -6.894531 20.664062 -4.414062 18.78125 -2.53125 Z M 4.921875 -9.953125 C 4.921875 -7.753906 5.5625 -5.96875 6.84375 -4.59375 C 8.132812 -3.226562 9.710938 -2.546875 11.578125 -2.546875 C 13.453125 -2.546875 15.035156 -3.226562 16.328125 -4.59375 C 17.617188 -5.96875 18.265625 -7.753906 18.265625 -9.953125 C 18.265625 -12.160156 17.609375 -13.9375 16.296875 -15.28125 C 14.992188 -16.625 13.429688 -17.296875 11.609375 -17.296875 C 9.785156 -17.296875 8.210938 -16.625 6.890625 -15.28125 C 5.578125 -13.9375 4.921875 -12.160156 4.921875 -9.953125 Z M 4.921875 -9.953125 "/></g></g></g><g fill="#ff00ff" fill-opacity="1"><g transform="translate(498.047814, 201.779691)"><g><path d="M 10.15625 9.078125 L 2.0625 9.078125 C 1.707031 9.078125 1.53125 8.914062 1.53125 8.59375 L 1.53125 6.859375 C 1.53125 6.535156 1.707031 6.375 2.0625 6.375 L 4.3125 6.375 L 4.3125 -17.140625 L 2.140625 -17.140625 C 1.785156 -17.140625 1.609375 -17.296875 1.609375 -17.609375 L 1.609375 -19.34375 C 1.609375 -19.664062 1.785156 -19.828125 2.140625 -19.828125 L 6.859375 -19.828125 C 7.203125 -19.828125 7.375 -19.664062 7.375 -19.34375 L 7.34375 -16.171875 L 7.375 -16.171875 C 7.882812 -17.265625 8.707031 -18.191406 9.84375 -18.953125 C 10.988281 -19.722656 12.394531 -20.109375 14.0625 -20.109375 C 16.78125 -20.109375 18.972656 -19.1875 20.640625 -17.34375 C 22.304688 -15.507812 23.140625 -13.066406 23.140625 -10.015625 C 23.140625 -6.960938 22.316406 -4.484375 20.671875 -2.578125 C 19.035156 -0.671875 16.847656 0.28125 14.109375 0.28125 C 12.441406 0.28125 11.050781 -0.0976562 9.9375 -0.859375 C 8.820312 -1.628906 8.019531 -2.566406 7.53125 -3.671875 L 7.421875 -3.671875 C 7.492188 -2.804688 7.53125 -2.1875 7.53125 -1.8125 L 7.53125 6.375 L 10.15625 6.375 C 10.507812 6.375 10.6875 6.535156 10.6875 6.859375 L 10.6875 8.59375 C 10.6875 8.914062 10.507812 9.078125 10.15625 9.078125 Z M 7.453125 -9.828125 C 7.453125 -7.492188 8.0625 -5.695312 9.28125 -4.4375 C 10.507812 -3.175781 11.988281 -2.546875 13.71875 -2.546875 C 15.457031 -2.546875 16.910156 -3.222656 18.078125 -4.578125 C 19.242188 -5.929688 19.828125 -7.71875 19.828125 -9.9375 C 19.828125 -12.15625 19.242188 -13.9375 18.078125 -15.28125 C 16.910156 -16.625 15.453125 -17.296875 13.703125 -17.296875 C 11.960938 -17.296875 10.484375 -16.632812 9.265625 -15.3125 C 8.054688 -14 7.453125 -12.171875 7.453125 -9.828125 Z M 7.453125 -9.828125 "/></g></g></g><g fill="#00ffff" fill-opacity="1"><g transform="translate(270.086594, 201.779691)"><g><path d="M 17.90625 0 L 16.328125 0 C 15.816406 0 15.425781 -0.117188 15.15625 -0.359375 C 14.882812 -0.597656 14.644531 -1.015625 14.4375 -1.609375 L 5.046875 -25.921875 L 2.453125 -25.921875 C 2.109375 -25.921875 1.9375 -26.082031 1.9375 -26.40625 L 1.9375 -28.453125 C 1.9375 -28.773438 2.109375 -28.9375 2.453125 -28.9375 L 11.53125 -28.9375 C 11.851562 -28.9375 12.015625 -28.773438 12.015625 -28.453125 L 12.015625 -26.40625 C 12.015625 -26.082031 11.851562 -25.921875 11.53125 -25.921875 L 8.78125 -25.921875 L 16.96875 -4.265625 L 17.21875 -4.265625 L 25.390625 -25.921875 L 22.65625 -25.921875 C 22.300781 -25.921875 22.125 -26.082031 22.125 -26.40625 L 22.125 -28.453125 C 22.125 -28.773438 22.300781 -28.9375 22.65625 -28.9375 L 31.71875 -28.9375 C 32.070312 -28.9375 32.25 -28.773438 32.25 -28.453125 L 32.25 -26.40625 C 32.25 -26.082031 32.070312 -25.921875 31.71875 -25.921875 L 29.0625 -25.921875 L 19.75 -1.609375 C 19.5625 -1.046875 19.335938 -0.632812 19.078125 -0.375 C 18.828125 -0.125 18.4375 0 17.90625 0 Z M 17.90625 0 "/></g></g></g><g fill="#00ffff" fill-opacity="1"><g transform="translate(304.261613, 201.779691)"><g><path d="M 9.75 0 L 2.0625 0 C 1.707031 0 1.53125 -0.160156 1.53125 -0.484375 L 1.53125 -2.21875 C 1.53125 -2.539062 1.707031 -2.703125 2.0625 -2.703125 L 4.265625 -2.703125 L 4.265625 -17.140625 L 2.0625 -17.140625 C 1.707031 -17.140625 1.53125 -17.296875 1.53125 -17.609375 L 1.53125 -19.34375 C 1.53125 -19.664062 1.707031 -19.828125 2.0625 -19.828125 L 7.140625 -19.828125 C 7.460938 -19.828125 7.625 -19.664062 7.625 -19.34375 L 7.625 -2.703125 L 9.75 -2.703125 C 10.101562 -2.703125 10.28125 -2.539062 10.28125 -2.21875 L 10.28125 -0.484375 C 10.28125 -0.160156 10.101562 0 9.75 0 Z M 7.46875 -25.796875 C 7.914062 -25.335938 8.140625 -24.800781 8.140625 -24.1875 C 8.140625 -23.570312 7.914062 -23.046875 7.46875 -22.609375 C 7.03125 -22.179688 6.5 -21.96875 5.875 -21.96875 C 5.257812 -21.96875 4.726562 -22.179688 4.28125 -22.609375 C 3.84375 -23.046875 3.625 -23.570312 3.625 -24.1875 C 3.625 -24.800781 3.84375 -25.335938 4.28125 -25.796875 C 4.726562 -26.253906 5.257812 -26.484375 5.875 -26.484375 C 6.5 -26.484375 7.03125 -26.253906 7.46875 -25.796875 Z M 7.46875 -25.796875 "/></g></g></g><g fill="#00ffff" fill-opacity="1"><g transform="translate(316.069729, 201.779691)"><g><path d="M 9.75 0 L 2.0625 0 C 1.707031 0 1.53125 -0.160156 1.53125 -0.484375 L 1.53125 -2.21875 C 1.53125 -2.539062 1.707031 -2.703125 2.0625 -2.703125 L 4.265625 -2.703125 L 4.265625 -17.140625 L 2.0625 -17.140625 C 1.707031 -17.140625 1.53125 -17.296875 1.53125 -17.609375 L 1.53125 -19.34375 C 1.53125 -19.664062 1.707031 -19.828125 2.0625 -19.828125 L 6.765625 -19.828125 C 7.117188 -19.828125 7.296875 -19.664062 7.296875 -19.34375 L 7.296875 -14.3125 L 7.421875 -14.3125 C 7.492188 -14.738281 7.769531 -15.328125 8.25 -16.078125 C 8.738281 -16.835938 9.269531 -17.460938 9.84375 -17.953125 C 10.425781 -18.453125 11.257812 -18.90625 12.34375 -19.3125 C 13.4375 -19.71875 14.671875 -19.921875 16.046875 -19.921875 C 16.390625 -19.921875 16.5625 -19.742188 16.5625 -19.390625 L 16.5625 -17.25 C 16.5625 -16.90625 16.390625 -16.734375 16.046875 -16.734375 L 15.203125 -16.734375 C 12.890625 -16.734375 11.046875 -15.992188 9.671875 -14.515625 C 8.304688 -13.035156 7.625 -11.351562 7.625 -9.46875 L 7.625 -2.703125 L 9.75 -2.703125 C 10.101562 -2.703125 10.28125 -2.539062 10.28125 -2.21875 L 10.28125 -0.484375 C 10.28125 -0.160156 10.101562 0 9.75 0 Z M 9.75 0 "/></g></g></g><g fill="#00ffff" fill-opacity="1"><g transform="translate(333.036338, 201.779691)"><g><path d="M 15 -2.0625 C 15.101562 -1.945312 15.15625 -1.828125 15.15625 -1.703125 C 15.15625 -1.585938 15.078125 -1.453125 14.921875 -1.296875 C 13.734375 -0.242188 12.242188 0.28125 10.453125 0.28125 C 8.671875 0.28125 7.207031 -0.300781 6.0625 -1.46875 C 4.925781 -2.632812 4.359375 -4.335938 4.359375 -6.578125 L 4.359375 -17.140625 L 2.09375 -17.140625 C 1.71875 -17.140625 1.53125 -17.3125 1.53125 -17.65625 L 1.53125 -19.3125 C 1.53125 -19.65625 1.71875 -19.828125 2.09375 -19.828125 L 4.359375 -19.828125 L 4.359375 -23.90625 C 4.359375 -24.28125 4.546875 -24.46875 4.921875 -24.46875 L 7.171875 -24.46875 C 7.523438 -24.46875 7.703125 -24.28125 7.703125 -23.90625 L 7.703125 -19.828125 L 12.8125 -19.828125 C 13.195312 -19.828125 13.390625 -19.65625 13.390625 -19.3125 L 13.390625 -17.65625 C 13.390625 -17.3125 13.195312 -17.140625 12.8125 -17.140625 L 7.703125 -17.140625 L 7.703125 -6.65625 C 7.703125 -5.3125 8.003906 -4.296875 8.609375 -3.609375 C 9.210938 -2.921875 10.015625 -2.578125 11.015625 -2.578125 C 12.023438 -2.578125 12.785156 -2.832031 13.296875 -3.34375 C 13.566406 -3.582031 13.8125 -3.570312 14.03125 -3.3125 Z M 15 -2.0625 "/></g></g></g><g fill="#00ffff" fill-opacity="1"><g transform="translate(349.196928, 201.779691)"><g><path d="M 22.453125 0 L 18.953125 0 C 17.796875 0 17.21875 -0.5625 17.21875 -1.6875 L 17.21875 -3.1875 L 17.09375 -3.1875 C 15.988281 -0.875 13.890625 0.28125 10.796875 0.28125 C 8.648438 0.28125 6.953125 -0.351562 5.703125 -1.625 C 4.453125 -2.90625 3.816406 -4.609375 3.796875 -6.734375 L 3.796875 -17.140625 L 1.484375 -17.140625 C 1.171875 -17.140625 1.015625 -17.296875 1.015625 -17.609375 L 1.015625 -19.34375 C 1.015625 -19.664062 1.171875 -19.828125 1.484375 -19.828125 L 5.359375 -19.828125 C 6.515625 -19.828125 7.09375 -19.265625 7.09375 -18.140625 L 7.09375 -7.53125 C 7.09375 -5.976562 7.46875 -4.769531 8.21875 -3.90625 C 8.976562 -3.050781 10.082031 -2.625 11.53125 -2.625 C 13.488281 -2.625 15.035156 -3.347656 16.171875 -4.796875 C 16.648438 -5.410156 16.890625 -5.828125 16.890625 -6.046875 L 16.890625 -17.140625 L 14.71875 -17.140625 C 14.394531 -17.140625 14.234375 -17.296875 14.234375 -17.609375 L 14.234375 -19.34375 C 14.234375 -19.664062 14.394531 -19.828125 14.71875 -19.828125 L 19.71875 -19.828125 C 20.039062 -19.828125 20.203125 -19.664062 20.203125 -19.34375 L 20.203125 -2.703125 L 22.453125 -2.703125 C 22.804688 -2.703125 22.984375 -2.539062 22.984375 -2.21875 L 22.984375 -0.484375 C 22.984375 -0.160156 22.804688 0 22.453125 0 Z M 22.453125 0 "/></g></g></g><g fill="#00ffff" fill-opacity="1"><g transform="translate(373.699768, 201.779691)"><g><path d="M 21.328125 0 L 17.8125 0 C 16.65625 0 16.078125 -0.5625 16.078125 -1.6875 L 16.078125 -3.75 L 16 -3.75 C 14.039062 -1.03125 11.421875 0.328125 8.140625 0.328125 C 6.203125 0.328125 4.613281 -0.175781 3.375 -1.1875 C 2.144531 -2.195312 1.53125 -3.5625 1.53125 -5.28125 C 1.53125 -7.488281 2.488281 -9.109375 4.40625 -10.140625 C 6.332031 -11.171875 8.972656 -11.6875 12.328125 -11.6875 L 15.71875 -11.6875 L 15.71875 -12.171875 C 15.71875 -15.535156 13.972656 -17.21875 10.484375 -17.21875 C 8.835938 -17.21875 7.648438 -17.0625 6.921875 -16.75 C 6.203125 -16.4375 5.6875 -16.1875 5.375 -16 C 5.070312 -15.8125 4.835938 -15.664062 4.671875 -15.5625 C 4.273438 -15.238281 3.984375 -15.210938 3.796875 -15.484375 L 2.65625 -16.890625 C 2.46875 -17.109375 2.492188 -17.320312 2.734375 -17.53125 C 3.191406 -18.125 4.132812 -18.703125 5.5625 -19.265625 C 6.988281 -19.828125 8.671875 -20.109375 10.609375 -20.109375 C 16.242188 -20.109375 19.0625 -17.421875 19.0625 -12.046875 L 19.0625 -2.703125 L 21.328125 -2.703125 C 21.648438 -2.703125 21.8125 -2.539062 21.8125 -2.21875 L 21.8125 -0.484375 C 21.8125 -0.160156 21.648438 0 21.328125 0 Z M 15.71875 -9.265625 L 12.53125 -9.265625 C 10.976562 -9.265625 9.691406 -9.179688 8.671875 -9.015625 C 7.648438 -8.859375 6.78125 -8.507812 6.0625 -7.96875 C 5.351562 -7.4375 5 -6.703125 5 -5.765625 C 5 -4.828125 5.378906 -4.054688 6.140625 -3.453125 C 6.910156 -2.847656 7.914062 -2.546875 9.15625 -2.546875 C 11.757812 -2.546875 13.945312 -3.695312 15.71875 -6 Z M 15.71875 -9.265625 "/></g></g></g><g fill="#00ffff" fill-opacity="1"><g transform="translate(397.074186, 201.779691)"><g><path d="M 9.75 0 L 2.0625 0 C 1.707031 0 1.53125 -0.160156 1.53125 -0.484375 L 1.53125 -2.21875 C 1.53125 -2.539062 1.707031 -2.703125 2.0625 -2.703125 L 4.265625 -2.703125 L 4.265625 -26.25 L 2.0625 -26.25 C 1.707031 -26.25 1.53125 -26.410156 1.53125 -26.734375 L 1.53125 -28.453125 C 1.53125 -28.773438 1.707031 -28.9375 2.0625 -28.9375 L 6.53125 -28.9375 C 7.257812 -28.9375 7.625 -28.601562 7.625 -27.9375 L 7.625 -2.703125 L 9.75 -2.703125 C 10.101562 -2.703125 10.28125 -2.539062 10.28125 -2.21875 L 10.28125 -0.484375 C 10.28125 -0.160156 10.101562 0 9.75 0 Z M 9.75 0 "/></g></g></g><g fill="#00ffff" fill-opacity="1"><g transform="translate(408.882302, 201.779691)"><g/></g></g><g fill="#00ffff" fill-opacity="1"><g transform="translate(421.496425, 201.779691)"><g><path d="M 4.71875 0 L 2.453125 0 C 2.109375 0 1.9375 -0.160156 1.9375 -0.484375 L 1.9375 -9.921875 C 1.9375 -10.265625 2.109375 -10.4375 2.453125 -10.4375 L 5 -10.4375 C 5.320312 -10.4375 5.484375 -10.265625 5.484375 -9.921875 L 5.484375 -9.078125 C 5.484375 -8.554688 5.789062 -7.875 6.40625 -7.03125 C 7.03125 -6.1875 7.648438 -5.492188 8.265625 -4.953125 C 8.878906 -4.421875 9.703125 -3.957031 10.734375 -3.5625 C 11.773438 -3.175781 12.898438 -2.984375 14.109375 -2.984375 C 16.179688 -2.984375 17.800781 -3.410156 18.96875 -4.265625 C 20.132812 -5.128906 20.71875 -6.328125 20.71875 -7.859375 C 20.71875 -8.742188 20.390625 -9.503906 19.734375 -10.140625 C 19.078125 -10.773438 18.222656 -11.28125 17.171875 -11.65625 C 16.117188 -12.03125 14.953125 -12.378906 13.671875 -12.703125 C 12.398438 -13.023438 11.125 -13.394531 9.84375 -13.8125 C 8.570312 -14.226562 7.410156 -14.722656 6.359375 -15.296875 C 5.316406 -15.878906 4.46875 -16.6875 3.8125 -17.71875 C 3.15625 -18.75 2.828125 -19.960938 2.828125 -21.359375 C 2.828125 -23.617188 3.675781 -25.488281 5.375 -26.96875 C 7.082031 -28.445312 9.375 -29.1875 12.25 -29.1875 C 15.882812 -29.1875 18.546875 -28.125 20.234375 -26 L 20.15625 -28.5 C 20.15625 -28.820312 20.332031 -28.984375 20.6875 -28.984375 L 22.9375 -28.984375 C 23.257812 -28.984375 23.421875 -28.820312 23.421875 -28.5 L 23.421875 -19.71875 C 23.421875 -19.394531 23.257812 -19.234375 22.9375 -19.234375 L 20.390625 -19.234375 C 20.078125 -19.234375 19.921875 -19.394531 19.921875 -19.71875 L 19.921875 -20.84375 C 19.921875 -21.945312 19.300781 -23.0625 18.0625 -24.1875 C 16.820312 -25.3125 15.007812 -25.875 12.625 -25.875 C 10.84375 -25.875 9.40625 -25.453125 8.3125 -24.609375 C 7.226562 -23.765625 6.6875 -22.679688 6.6875 -21.359375 C 6.6875 -20.421875 7.019531 -19.613281 7.6875 -18.9375 C 8.363281 -18.269531 9.238281 -17.734375 10.3125 -17.328125 C 11.394531 -16.929688 12.578125 -16.5625 13.859375 -16.21875 C 15.148438 -15.882812 16.441406 -15.515625 17.734375 -15.109375 C 19.023438 -14.710938 20.207031 -14.226562 21.28125 -13.65625 C 22.351562 -13.09375 23.222656 -12.320312 23.890625 -11.34375 C 24.566406 -10.363281 24.90625 -9.203125 24.90625 -7.859375 C 24.90625 -5.492188 24.054688 -3.546875 22.359375 -2.015625 C 20.671875 -0.484375 18.148438 0.28125 14.796875 0.28125 C 12.328125 0.28125 10.285156 -0.210938 8.671875 -1.203125 C 7.054688 -2.203125 5.882812 -3.28125 5.15625 -4.4375 L 5.203125 -0.484375 C 5.203125 -0.160156 5.039062 0 4.71875 0 Z M 4.71875 0 "/></g></g></g><g fill="#00ffff" fill-opacity="1"><g transform="translate(448.336709, 201.779691)"><g><path d="M 22.984375 0 L 19.15625 0 C 18 0 17.421875 -0.5625 17.421875 -1.6875 L 17.421875 -12.296875 C 17.421875 -13.859375 17.039062 -15.066406 16.28125 -15.921875 C 15.53125 -16.785156 14.429688 -17.21875 12.984375 -17.21875 C 11.878906 -17.21875 11.035156 -17.046875 10.453125 -16.703125 C 9.878906 -16.367188 9.441406 -16.070312 9.140625 -15.8125 C 8.847656 -15.5625 8.609375 -15.316406 8.421875 -15.078125 C 8.097656 -14.648438 7.832031 -14.207031 7.625 -13.75 L 7.625 -2.703125 L 9.75 -2.703125 C 10.101562 -2.703125 10.28125 -2.539062 10.28125 -2.21875 L 10.28125 -0.484375 C 10.28125 -0.160156 10.101562 0 9.75 0 L 2.0625 0 C 1.707031 0 1.53125 -0.160156 1.53125 -0.484375 L 1.53125 -2.21875 C 1.53125 -2.539062 1.707031 -2.703125 2.0625 -2.703125 L 4.265625 -2.703125 L 4.265625 -26.25 L 2.0625 -26.25 C 1.707031 -26.25 1.53125 -26.410156 1.53125 -26.734375 L 1.53125 -28.453125 C 1.53125 -28.773438 1.707031 -28.9375 2.0625 -28.9375 L 7.140625 -28.9375 C 7.460938 -28.9375 7.625 -28.773438 7.625 -28.453125 L 7.625 -19.46875 C 7.625 -18.582031 7.566406 -17.765625 7.453125 -17.015625 L 7.53125 -17.015625 C 8.851562 -19.078125 10.953125 -20.109375 13.828125 -20.109375 C 15.972656 -20.109375 17.648438 -19.476562 18.859375 -18.21875 C 20.078125 -16.957031 20.695312 -15.253906 20.71875 -13.109375 L 20.71875 -2.703125 L 22.984375 -2.703125 C 23.328125 -2.703125 23.5 -2.539062 23.5 -2.21875 L 23.5 -0.484375 C 23.5 -0.160156 23.328125 0 22.984375 0 Z M 22.984375 0 "/></g></g></g><g fill="#00ffff" fill-opacity="1"><g transform="translate(473.363448, 201.779691)"><g><path d="M 18.78125 -2.53125 C 16.90625 -0.65625 14.5 0.28125 11.5625 0.28125 C 8.632812 0.28125 6.226562 -0.648438 4.34375 -2.515625 C 2.46875 -4.390625 1.53125 -6.878906 1.53125 -9.984375 C 1.53125 -13.085938 2.484375 -15.550781 4.390625 -17.375 C 6.296875 -19.195312 8.691406 -20.109375 11.578125 -20.109375 C 14.472656 -20.109375 16.867188 -19.1875 18.765625 -17.34375 C 20.660156 -15.507812 21.609375 -13.050781 21.609375 -9.96875 C 21.609375 -6.894531 20.664062 -4.414062 18.78125 -2.53125 Z M 4.921875 -9.953125 C 4.921875 -7.753906 5.5625 -5.96875 6.84375 -4.59375 C 8.132812 -3.226562 9.710938 -2.546875 11.578125 -2.546875 C 13.453125 -2.546875 15.035156 -3.226562 16.328125 -4.59375 C 17.617188 -5.96875 18.265625 -7.753906 18.265625 -9.953125 C 18.265625 -12.160156 17.609375 -13.9375 16.296875 -15.28125 C 14.992188 -16.625 13.429688 -17.296875 11.609375 -17.296875 C 9.785156 -17.296875 8.210938 -16.625 6.890625 -15.28125 C 5.578125 -13.9375 4.921875 -12.160156 4.921875 -9.953125 Z M 4.921875 -9.953125 "/></g></g></g><g fill="#00ffff" fill-opacity="1"><g transform="translate(496.536359, 201.779691)"><g><path d="M 10.15625 9.078125 L 2.0625 9.078125 C 1.707031 9.078125 1.53125 8.914062 1.53125 8.59375 L 1.53125 6.859375 C 1.53125 6.535156 1.707031 6.375 2.0625 6.375 L 4.3125 6.375 L 4.3125 -17.140625 L 2.140625 -17.140625 C 1.785156 -17.140625 1.609375 -17.296875 1.609375 -17.609375 L 1.609375 -19.34375 C 1.609375 -19.664062 1.785156 -19.828125 2.140625 -19.828125 L 6.859375 -19.828125 C 7.203125 -19.828125 7.375 -19.664062 7.375 -19.34375 L 7.34375 -16.171875 L 7.375 -16.171875 C 7.882812 -17.265625 8.707031 -18.191406 9.84375 -18.953125 C 10.988281 -19.722656 12.394531 -20.109375 14.0625 -20.109375 C 16.78125 -20.109375 18.972656 -19.1875 20.640625 -17.34375 C 22.304688 -15.507812 23.140625 -13.066406 23.140625 -10.015625 C 23.140625 -6.960938 22.316406 -4.484375 20.671875 -2.578125 C 19.035156 -0.671875 16.847656 0.28125 14.109375 0.28125 C 12.441406 0.28125 11.050781 -0.0976562 9.9375 -0.859375 C 8.820312 -1.628906 8.019531 -2.566406 7.53125 -3.671875 L 7.421875 -3.671875 C 7.492188 -2.804688 7.53125 -2.1875 7.53125 -1.8125 L 7.53125 6.375 L 10.15625 6.375 C 10.507812 6.375 10.6875 6.535156 10.6875 6.859375 L 10.6875 8.59375 C 10.6875 8.914062 10.507812 9.078125 10.15625 9.078125 Z M 7.453125 -9.828125 C 7.453125 -7.492188 8.0625 -5.695312 9.28125 -4.4375 C 10.507812 -3.175781 11.988281 -2.546875 13.71875 -2.546875 C 15.457031 -2.546875 16.910156 -3.222656 18.078125 -4.578125 C 19.242188 -5.929688 19.828125 -7.71875 19.828125 -9.9375 C 19.828125 -12.15625 19.242188 -13.9375 18.078125 -15.28125 C 16.910156 -16.625 15.453125 -17.296875 13.703125 -17.296875 C 11.960938 -17.296875 10.484375 -16.632812 9.265625 -15.3125 C 8.054688 -14 7.453125 -12.171875 7.453125 -9.828125 Z M 7.453125 -9.828125 "/></g></g></g><g fill="#231f20" fill-opacity="1"><g transform="translate(270.84232, 201.779691)"><g><path d="M 17.90625 0 L 16.328125 0 C 15.816406 0 15.425781 -0.117188 15.15625 -0.359375 C 14.882812 -0.597656 14.644531 -1.015625 14.4375 -1.609375 L 5.046875 -25.921875 L 2.453125 -25.921875 C 2.109375 -25.921875 1.9375 -26.082031 1.9375 -26.40625 L 1.9375 -28.453125 C 1.9375 -28.773438 2.109375 -28.9375 2.453125 -28.9375 L 11.53125 -28.9375 C 11.851562 -28.9375 12.015625 -28.773438 12.015625 -28.453125 L 12.015625 -26.40625 C 12.015625 -26.082031 11.851562 -25.921875 11.53125 -25.921875 L 8.78125 -25.921875 L 16.96875 -4.265625 L 17.21875 -4.265625 L 25.390625 -25.921875 L 22.65625 -25.921875 C 22.300781 -25.921875 22.125 -26.082031 22.125 -26.40625 L 22.125 -28.453125 C 22.125 -28.773438 22.300781 -28.9375 22.65625 -28.9375 L 31.71875 -28.9375 C 32.070312 -28.9375 32.25 -28.773438 32.25 -28.453125 L 32.25 -26.40625 C 32.25 -26.082031 32.070312 -25.921875 31.71875 -25.921875 L 29.0625 -25.921875 L 19.75 -1.609375 C 19.5625 -1.046875 19.335938 -0.632812 19.078125 -0.375 C 18.828125 -0.125 18.4375 0 17.90625 0 Z M 17.90625 0 "/></g></g></g><g fill="#231f20" fill-opacity="1"><g transform="translate(305.017339, 201.779691)"><g><path d="M 9.75 0 L 2.0625 0 C 1.707031 0 1.53125 -0.160156 1.53125 -0.484375 L 1.53125 -2.21875 C 1.53125 -2.539062 1.707031 -2.703125 2.0625 -2.703125 L 4.265625 -2.703125 L 4.265625 -17.140625 L 2.0625 -17.140625 C 1.707031 -17.140625 1.53125 -17.296875 1.53125 -17.609375 L 1.53125 -19.34375 C 1.53125 -19.664062 1.707031 -19.828125 2.0625 -19.828125 L 7.140625 -19.828125 C 7.460938 -19.828125 7.625 -19.664062 7.625 -19.34375 L 7.625 -2.703125 L 9.75 -2.703125 C 10.101562 -2.703125 10.28125 -2.539062 10.28125 -2.21875 L 10.28125 -0.484375 C 10.28125 -0.160156 10.101562 0 9.75 0 Z M 7.46875 -25.796875 C 7.914062 -25.335938 8.140625 -24.800781 8.140625 -24.1875 C 8.140625 -23.570312 7.914062 -23.046875 7.46875 -22.609375 C 7.03125 -22.179688 6.5 -21.96875 5.875 -21.96875 C 5.257812 -21.96875 4.726562 -22.179688 4.28125 -22.609375 C 3.84375 -23.046875 3.625 -23.570312 3.625 -24.1875 C 3.625 -24.800781 3.84375 -25.335938 4.28125 -25.796875 C 4.726562 -26.253906 5.257812 -26.484375 5.875 -26.484375 C 6.5 -26.484375 7.03125 -26.253906 7.46875 -25.796875 Z M 7.46875 -25.796875 "/></g></g></g><g fill="#231f20" fill-opacity="1"><g transform="translate(316.825455, 201.779691)"><g><path d="M 9.75 0 L 2.0625 0 C 1.707031 0 1.53125 -0.160156 1.53125 -0.484375 L 1.53125 -2.21875 C 1.53125 -2.539062 1.707031 -2.703125 2.0625 -2.703125 L 4.265625 -2.703125 L 4.265625 -17.140625 L 2.0625 -17.140625 C 1.707031 -17.140625 1.53125 -17.296875 1.53125 -17.609375 L 1.53125 -19.34375 C 1.53125 -19.664062 1.707031 -19.828125 2.0625 -19.828125 L 6.765625 -19.828125 C 7.117188 -19.828125 7.296875 -19.664062 7.296875 -19.34375 L 7.296875 -14.3125 L 7.421875 -14.3125 C 7.492188 -14.738281 7.769531 -15.328125 8.25 -16.078125 C 8.738281 -16.835938 9.269531 -17.460938 9.84375 -17.953125 C 10.425781 -18.453125 11.257812 -18.90625 12.34375 -19.3125 C 13.4375 -19.71875 14.671875 -19.921875 16.046875 -19.921875 C 16.390625 -19.921875 16.5625 -19.742188 16.5625 -19.390625 L 16.5625 -17.25 C 16.5625 -16.90625 16.390625 -16.734375 16.046875 -16.734375 L 15.203125 -16.734375 C 12.890625 -16.734375 11.046875 -15.992188 9.671875 -14.515625 C 8.304688 -13.035156 7.625 -11.351562 7.625 -9.46875 L 7.625 -2.703125 L 9.75 -2.703125 C 10.101562 -2.703125 10.28125 -2.539062 10.28125 -2.21875 L 10.28125 -0.484375 C 10.28125 -0.160156 10.101562 0 9.75 0 Z M 9.75 0 "/></g></g></g><g fill="#231f20" fill-opacity="1"><g transform="translate(333.792064, 201.779691)"><g><path d="M 15 -2.0625 C 15.101562 -1.945312 15.15625 -1.828125 15.15625 -1.703125 C 15.15625 -1.585938 15.078125 -1.453125 14.921875 -1.296875 C 13.734375 -0.242188 12.242188 0.28125 10.453125 0.28125 C 8.671875 0.28125 7.207031 -0.300781 6.0625 -1.46875 C 4.925781 -2.632812 4.359375 -4.335938 4.359375 -6.578125 L 4.359375 -17.140625 L 2.09375 -17.140625 C 1.71875 -17.140625 1.53125 -17.3125 1.53125 -17.65625 L 1.53125 -19.3125 C 1.53125 -19.65625 1.71875 -19.828125 2.09375 -19.828125 L 4.359375 -19.828125 L 4.359375 -23.90625 C 4.359375 -24.28125 4.546875 -24.46875 4.921875 -24.46875 L 7.171875 -24.46875 C 7.523438 -24.46875 7.703125 -24.28125 7.703125 -23.90625 L 7.703125 -19.828125 L 12.8125 -19.828125 C 13.195312 -19.828125 13.390625 -19.65625 13.390625 -19.3125 L 13.390625 -17.65625 C 13.390625 -17.3125 13.195312 -17.140625 12.8125 -17.140625 L 7.703125 -17.140625 L 7.703125 -6.65625 C 7.703125 -5.3125 8.003906 -4.296875 8.609375 -3.609375 C 9.210938 -2.921875 10.015625 -2.578125 11.015625 -2.578125 C 12.023438 -2.578125 12.785156 -2.832031 13.296875 -3.34375 C 13.566406 -3.582031 13.8125 -3.570312 14.03125 -3.3125 Z M 15 -2.0625 "/></g></g></g><g fill="#231f20" fill-opacity="1"><g transform="translate(349.952654, 201.779691)"><g><path d="M 22.453125 0 L 18.953125 0 C 17.796875 0 17.21875 -0.5625 17.21875 -1.6875 L 17.21875 -3.1875 L 17.09375 -3.1875 C 15.988281 -0.875 13.890625 0.28125 10.796875 0.28125 C 8.648438 0.28125 6.953125 -0.351562 5.703125 -1.625 C 4.453125 -2.90625 3.816406 -4.609375 3.796875 -6.734375 L 3.796875 -17.140625 L 1.484375 -17.140625 C 1.171875 -17.140625 1.015625 -17.296875 1.015625 -17.609375 L 1.015625 -19.34375 C 1.015625 -19.664062 1.171875 -19.828125 1.484375 -19.828125 L 5.359375 -19.828125 C 6.515625 -19.828125 7.09375 -19.265625 7.09375 -18.140625 L 7.09375 -7.53125 C 7.09375 -5.976562 7.46875 -4.769531 8.21875 -3.90625 C 8.976562 -3.050781 10.082031 -2.625 11.53125 -2.625 C 13.488281 -2.625 15.035156 -3.347656 16.171875 -4.796875 C 16.648438 -5.410156 16.890625 -5.828125 16.890625 -6.046875 L 16.890625 -17.140625 L 14.71875 -17.140625 C 14.394531 -17.140625 14.234375 -17.296875 14.234375 -17.609375 L 14.234375 -19.34375 C 14.234375 -19.664062 14.394531 -19.828125 14.71875 -19.828125 L 19.71875 -19.828125 C 20.039062 -19.828125 20.203125 -19.664062 20.203125 -19.34375 L 20.203125 -2.703125 L 22.453125 -2.703125 C 22.804688 -2.703125 22.984375 -2.539062 22.984375 -2.21875 L 22.984375 -0.484375 C 22.984375 -0.160156 22.804688 0 22.453125 0 Z M 22.453125 0 "/></g></g></g><g fill="#231f20" fill-opacity="1"><g transform="translate(374.455494, 201.779691)"><g><path d="M 21.328125 0 L 17.8125 0 C 16.65625 0 16.078125 -0.5625 16.078125 -1.6875 L 16.078125 -3.75 L 16 -3.75 C 14.039062 -1.03125 11.421875 0.328125 8.140625 0.328125 C 6.203125 0.328125 4.613281 -0.175781 3.375 -1.1875 C 2.144531 -2.195312 1.53125 -3.5625 1.53125 -5.28125 C 1.53125 -7.488281 2.488281 -9.109375 4.40625 -10.140625 C 6.332031 -11.171875 8.972656 -11.6875 12.328125 -11.6875 L 15.71875 -11.6875 L 15.71875 -12.171875 C 15.71875 -15.535156 13.972656 -17.21875 10.484375 -17.21875 C 8.835938 -17.21875 7.648438 -17.0625 6.921875 -16.75 C 6.203125 -16.4375 5.6875 -16.1875 5.375 -16 C 5.070312 -15.8125 4.835938 -15.664062 4.671875 -15.5625 C 4.273438 -15.238281 3.984375 -15.210938 3.796875 -15.484375 L 2.65625 -16.890625 C 2.46875 -17.109375 2.492188 -17.320312 2.734375 -17.53125 C 3.191406 -18.125 4.132812 -18.703125 5.5625 -19.265625 C 6.988281 -19.828125 8.671875 -20.109375 10.609375 -20.109375 C 16.242188 -20.109375 19.0625 -17.421875 19.0625 -12.046875 L 19.0625 -2.703125 L 21.328125 -2.703125 C 21.648438 -2.703125 21.8125 -2.539062 21.8125 -2.21875 L 21.8125 -0.484375 C 21.8125 -0.160156 21.648438 0 21.328125 0 Z M 15.71875 -9.265625 L 12.53125 -9.265625 C 10.976562 -9.265625 9.691406 -9.179688 8.671875 -9.015625 C 7.648438 -8.859375 6.78125 -8.507812 6.0625 -7.96875 C 5.351562 -7.4375 5 -6.703125 5 -5.765625 C 5 -4.828125 5.378906 -4.054688 6.140625 -3.453125 C 6.910156 -2.847656 7.914062 -2.546875 9.15625 -2.546875 C 11.757812 -2.546875 13.945312 -3.695312 15.71875 -6 Z M 15.71875 -9.265625 "/></g></g></g><g fill="#231f20" fill-opacity="1"><g transform="translate(397.829913, 201.779691)"><g><path d="M 9.75 0 L 2.0625 0 C 1.707031 0 1.53125 -0.160156 1.53125 -0.484375 L 1.53125 -2.21875 C 1.53125 -2.539062 1.707031 -2.703125 2.0625 -2.703125 L 4.265625 -2.703125 L 4.265625 -26.25 L 2.0625 -26.25 C 1.707031 -26.25 1.53125 -26.410156 1.53125 -26.734375 L 1.53125 -28.453125 C 1.53125 -28.773438 1.707031 -28.9375 2.0625 -28.9375 L 6.53125 -28.9375 C 7.257812 -28.9375 7.625 -28.601562 7.625 -27.9375 L 7.625 -2.703125 L 9.75 -2.703125 C 10.101562 -2.703125 10.28125 -2.539062 10.28125 -2.21875 L 10.28125 -0.484375 C 10.28125 -0.160156 10.101562 0 9.75 0 Z M 9.75 0 "/></g></g></g><g fill="#231f20" fill-opacity="1"><g transform="translate(409.638029, 201.779691)"><g/></g></g><g fill="#231f20" fill-opacity="1"><g transform="translate(422.252152, 201.779691)"><g><path d="M 4.71875 0 L 2.453125 0 C 2.109375 0 1.9375 -0.160156 1.9375 -0.484375 L 1.9375 -9.921875 C 1.9375 -10.265625 2.109375 -10.4375 2.453125 -10.4375 L 5 -10.4375 C 5.320312 -10.4375 5.484375 -10.265625 5.484375 -9.921875 L 5.484375 -9.078125 C 5.484375 -8.554688 5.789062 -7.875 6.40625 -7.03125 C 7.03125 -6.1875 7.648438 -5.492188 8.265625 -4.953125 C 8.878906 -4.421875 9.703125 -3.957031 10.734375 -3.5625 C 11.773438 -3.175781 12.898438 -2.984375 14.109375 -2.984375 C 16.179688 -2.984375 17.800781 -3.410156 18.96875 -4.265625 C 20.132812 -5.128906 20.71875 -6.328125 20.71875 -7.859375 C 20.71875 -8.742188 20.390625 -9.503906 19.734375 -10.140625 C 19.078125 -10.773438 18.222656 -11.28125 17.171875 -11.65625 C 16.117188 -12.03125 14.953125 -12.378906 13.671875 -12.703125 C 12.398438 -13.023438 11.125 -13.394531 9.84375 -13.8125 C 8.570312 -14.226562 7.410156 -14.722656 6.359375 -15.296875 C 5.316406 -15.878906 4.46875 -16.6875 3.8125 -17.71875 C 3.15625 -18.75 2.828125 -19.960938 2.828125 -21.359375 C 2.828125 -23.617188 3.675781 -25.488281 5.375 -26.96875 C 7.082031 -28.445312 9.375 -29.1875 12.25 -29.1875 C 15.882812 -29.1875 18.546875 -28.125 20.234375 -26 L 20.15625 -28.5 C 20.15625 -28.820312 20.332031 -28.984375 20.6875 -28.984375 L 22.9375 -28.984375 C 23.257812 -28.984375 23.421875 -28.820312 23.421875 -28.5 L 23.421875 -19.71875 C 23.421875 -19.394531 23.257812 -19.234375 22.9375 -19.234375 L 20.390625 -19.234375 C 20.078125 -19.234375 19.921875 -19.394531 19.921875 -19.71875 L 19.921875 -20.84375 C 19.921875 -21.945312 19.300781 -23.0625 18.0625 -24.1875 C 16.820312 -25.3125 15.007812 -25.875 12.625 -25.875 C 10.84375 -25.875 9.40625 -25.453125 8.3125 -24.609375 C 7.226562 -23.765625 6.6875 -22.679688 6.6875 -21.359375 C 6.6875 -20.421875 7.019531 -19.613281 7.6875 -18.9375 C 8.363281 -18.269531 9.238281 -17.734375 10.3125 -17.328125 C 11.394531 -16.929688 12.578125 -16.5625 13.859375 -16.21875 C 15.148438 -15.882812 16.441406 -15.515625 17.734375 -15.109375 C 19.023438 -14.710938 20.207031 -14.226562 21.28125 -13.65625 C 22.351562 -13.09375 23.222656 -12.320312 23.890625 -11.34375 C 24.566406 -10.363281 24.90625 -9.203125 24.90625 -7.859375 C 24.90625 -5.492188 24.054688 -3.546875 22.359375 -2.015625 C 20.671875 -0.484375 18.148438 0.28125 14.796875 0.28125 C 12.328125 0.28125 10.285156 -0.210938 8.671875 -1.203125 C 7.054688 -2.203125 5.882812 -3.28125 5.15625 -4.4375 L 5.203125 -0.484375 C 5.203125 -0.160156 5.039062 0 4.71875 0 Z M 4.71875 0 "/></g></g></g><g fill="#231f20" fill-opacity="1"><g transform="translate(449.092435, 201.779691)"><g><path d="M 22.984375 0 L 19.15625 0 C 18 0 17.421875 -0.5625 17.421875 -1.6875 L 17.421875 -12.296875 C 17.421875 -13.859375 17.039062 -15.066406 16.28125 -15.921875 C 15.53125 -16.785156 14.429688 -17.21875 12.984375 -17.21875 C 11.878906 -17.21875 11.035156 -17.046875 10.453125 -16.703125 C 9.878906 -16.367188 9.441406 -16.070312 9.140625 -15.8125 C 8.847656 -15.5625 8.609375 -15.316406 8.421875 -15.078125 C 8.097656 -14.648438 7.832031 -14.207031 7.625 -13.75 L 7.625 -2.703125 L 9.75 -2.703125 C 10.101562 -2.703125 10.28125 -2.539062 10.28125 -2.21875 L 10.28125 -0.484375 C 10.28125 -0.160156 10.101562 0 9.75 0 L 2.0625 0 C 1.707031 0 1.53125 -0.160156 1.53125 -0.484375 L 1.53125 -2.21875 C 1.53125 -2.539062 1.707031 -2.703125 2.0625 -2.703125 L 4.265625 -2.703125 L 4.265625 -26.25 L 2.0625 -26.25 C 1.707031 -26.25 1.53125 -26.410156 1.53125 -26.734375 L 1.53125 -28.453125 C 1.53125 -28.773438 1.707031 -28.9375 2.0625 -28.9375 L 7.140625 -28.9375 C 7.460938 -28.9375 7.625 -28.773438 7.625 -28.453125 L 7.625 -19.46875 C 7.625 -18.582031 7.566406 -17.765625 7.453125 -17.015625 L 7.53125 -17.015625 C 8.851562 -19.078125 10.953125 -20.109375 13.828125 -20.109375 C 15.972656 -20.109375 17.648438 -19.476562 18.859375 -18.21875 C 20.078125 -16.957031 20.695312 -15.253906 20.71875 -13.109375 L 20.71875 -2.703125 L 22.984375 -2.703125 C 23.328125 -2.703125 23.5 -2.539062 23.5 -2.21875 L 23.5 -0.484375 C 23.5 -0.160156 23.328125 0 22.984375 0 Z M 22.984375 0 "/></g></g></g><g fill="#231f20" fill-opacity="1"><g transform="translate(474.119174, 201.779691)"><g><path d="M 18.78125 -2.53125 C 16.90625 -0.65625 14.5 0.28125 11.5625 0.28125 C 8.632812 0.28125 6.226562 -0.648438 4.34375 -2.515625 C 2.46875 -4.390625 1.53125 -6.878906 1.53125 -9.984375 C 1.53125 -13.085938 2.484375 -15.550781 4.390625 -17.375 C 6.296875 -19.195312 8.691406 -20.109375 11.578125 -20.109375 C 14.472656 -20.109375 16.867188 -19.1875 18.765625 -17.34375 C 20.660156 -15.507812 21.609375 -13.050781 21.609375 -9.96875 C 21.609375 -6.894531 20.664062 -4.414062 18.78125 -2.53125 Z M 4.921875 -9.953125 C 4.921875 -7.753906 5.5625 -5.96875 6.84375 -4.59375 C 8.132812 -3.226562 9.710938 -2.546875 11.578125 -2.546875 C 13.453125 -2.546875 15.035156 -3.226562 16.328125 -4.59375 C 17.617188 -5.96875 18.265625 -7.753906 18.265625 -9.953125 C 18.265625 -12.160156 17.609375 -13.9375 16.296875 -15.28125 C 14.992188 -16.625 13.429688 -17.296875 11.609375 -17.296875 C 9.785156 -17.296875 8.210938 -16.625 6.890625 -15.28125 C 5.578125 -13.9375 4.921875 -12.160156 4.921875 -9.953125 Z M 4.921875 -9.953125 "/></g></g></g><g fill="#231f20" fill-opacity="1"><g transform="translate(497.292085, 201.779691)"><g><path d="M 10.15625 9.078125 L 2.0625 9.078125 C 1.707031 9.078125 1.53125 8.914062 1.53125 8.59375 L 1.53125 6.859375 C 1.53125 6.535156 1.707031 6.375 2.0625 6.375 L 4.3125 6.375 L 4.3125 -17.140625 L 2.140625 -17.140625 C 1.785156 -17.140625 1.609375 -17.296875 1.609375 -17.609375 L 1.609375 -19.34375 C 1.609375 -19.664062 1.785156 -19.828125 2.140625 -19.828125 L 6.859375 -19.828125 C 7.203125 -19.828125 7.375 -19.664062 7.375 -19.34375 L 7.34375 -16.171875 L 7.375 -16.171875 C 7.882812 -17.265625 8.707031 -18.191406 9.84375 -18.953125 C 10.988281 -19.722656 12.394531 -20.109375 14.0625 -20.109375 C 16.78125 -20.109375 18.972656 -19.1875 20.640625 -17.34375 C 22.304688 -15.507812 23.140625 -13.066406 23.140625 -10.015625 C 23.140625 -6.960938 22.316406 -4.484375 20.671875 -2.578125 C 19.035156 -0.671875 16.847656 0.28125 14.109375 0.28125 C 12.441406 0.28125 11.050781 -0.0976562 9.9375 -0.859375 C 8.820312 -1.628906 8.019531 -2.566406 7.53125 -3.671875 L 7.421875 -3.671875 C 7.492188 -2.804688 7.53125 -2.1875 7.53125 -1.8125 L 7.53125 6.375 L 10.15625 6.375 C 10.507812 6.375 10.6875 6.535156 10.6875 6.859375 L 10.6875 8.59375 C 10.6875 8.914062 10.507812 9.078125 10.15625 9.078125 Z M 7.453125 -9.828125 C 7.453125 -7.492188 8.0625 -5.695312 9.28125 -4.4375 C 10.507812 -3.175781 11.988281 -2.546875 13.71875 -2.546875 C 15.457031 -2.546875 16.910156 -3.222656 18.078125 -4.578125 C 19.242188 -5.929688 19.828125 -7.71875 19.828125 -9.9375 C 19.828125 -12.15625 19.242188 -13.9375 18.078125 -15.28125 C 16.910156 -16.625 15.453125 -17.296875 13.703125 -17.296875 C 11.960938 -17.296875 10.484375 -16.632812 9.265625 -15.3125 C 8.054688 -14 7.453125 -12.171875 7.453125 -9.828125 Z M 7.453125 -9.828125 "/></g></g></g></svg>